<svg width="40" height="40" viewBox="0 0 40 40" fill="none" xmlns="http://www.w3.org/2000/svg">
<mask id="mask0_153_1477" style="mask-type:alpha" maskUnits="userSpaceOnUse" x="0" y="0" width="40" height="40">
<rect width="40" height="40" fill="#D9D9D9"/>
</mask>
<g mask="url(#mask0_153_1477)">
<path opacity="0.5" d="M12.1896 34.8941C11.8584 34.5629 11.6928 34.1687 11.6928 33.7114C11.6928 33.2542 11.8584 32.8599 12.1896 32.5288L24.7185 19.9999L12.1479 7.42934C11.8338 7.11525 11.6768 6.73064 11.6768 6.2755C11.6768 5.82039 11.8477 5.4219 12.1896 5.08004C12.5208 4.74885 12.915 4.58325 13.3723 4.58325C13.8295 4.58325 14.2237 4.74885 14.5549 5.08004L28.3947 18.9454C28.5506 19.1014 28.6607 19.2659 28.7248 19.439C28.7889 19.6121 28.8209 19.799 28.8209 19.9999C28.8209 20.2007 28.7889 20.3877 28.7248 20.5608C28.6607 20.7338 28.5506 20.8984 28.3947 21.0543L14.5133 34.9358C14.1992 35.2499 13.8188 35.4069 13.3723 35.4069C12.9257 35.4069 12.5315 35.236 12.1896 34.8941Z" fill="black"/>
</g>
</svg>
