<svg width="16" height="16" viewBox="0 0 16 16" fill="none" xmlns="http://www.w3.org/2000/svg">
<mask id="mask0_286_1943" style="mask-type:alpha" maskUnits="userSpaceOnUse" x="0" y="0" width="16" height="16">
<rect width="16" height="16" fill="#D9D9D9"/>
</mask>
<g mask="url(#mask0_286_1943)">
<path d="M3.53814 13.6668C3.20139 13.6668 2.91634 13.5501 2.68301 13.3168C2.44967 13.0835 2.33301 12.7984 2.33301 12.4617V3.53863C2.33301 3.20187 2.44967 2.91683 2.68301 2.6835C2.91634 2.45016 3.20139 2.3335 3.53814 2.3335H7.24324C7.38512 2.3335 7.50392 2.38136 7.59964 2.4771C7.69536 2.57282 7.74323 2.69162 7.74323 2.8335C7.74323 2.97537 7.69536 3.09417 7.59964 3.1899C7.50392 3.28562 7.38512 3.33348 7.24324 3.33348H3.53814C3.48685 3.33348 3.43984 3.35485 3.39709 3.39758C3.35436 3.44032 3.33299 3.48734 3.33299 3.53863V12.4617C3.33299 12.513 3.35436 12.56 3.39709 12.6027C3.43984 12.6454 3.48685 12.6668 3.53814 12.6668H12.4612C12.5125 12.6668 12.5595 12.6454 12.6022 12.6027C12.645 12.56 12.6663 12.513 12.6663 12.4617V8.75656C12.6663 8.61469 12.7142 8.49589 12.8099 8.40016C12.9056 8.30444 13.0244 8.25658 13.1663 8.25658C13.3082 8.25658 13.427 8.30444 13.5227 8.40016C13.6184 8.49589 13.6663 8.61469 13.6663 8.75656V12.4617C13.6663 12.7984 13.5496 13.0835 13.3163 13.3168C13.083 13.5501 12.7979 13.6668 12.4612 13.6668H3.53814ZM6.12787 9.87193C6.0313 9.77535 5.98301 9.65826 5.98301 9.52066C5.98301 9.38305 6.0313 9.26596 6.12787 9.16938L11.9638 3.33348H9.83298C9.6911 3.33348 9.5723 3.28562 9.47657 3.1899C9.38085 3.09417 9.33299 2.97537 9.33299 2.8335C9.33299 2.69162 9.38085 2.57282 9.47657 2.4771C9.5723 2.38136 9.6911 2.3335 9.83298 2.3335H13.0637C13.2355 2.3335 13.3789 2.39098 13.4939 2.50595C13.6088 2.6209 13.6663 2.76427 13.6663 2.93606V6.16683C13.6663 6.30871 13.6184 6.42751 13.5227 6.52323C13.427 6.61895 13.3082 6.66681 13.1663 6.66681C13.0244 6.66681 12.9056 6.61895 12.8099 6.52323C12.7142 6.42751 12.6663 6.30871 12.6663 6.16683V4.03603L6.81376 9.8886C6.72145 9.98091 6.60991 10.0271 6.47914 10.0271C6.34837 10.0271 6.23129 9.97535 6.12787 9.87193Z" fill="#D0D0FF"/>
</g>
</svg>
