<svg width="40" height="40" viewBox="0 0 40 40" fill="none" xmlns="http://www.w3.org/2000/svg">
<rect width="40" height="40" rx="20" fill="#FDFEFC"/>
<circle opacity="0.7" cx="18.057" cy="14.6216" r="10.5" transform="rotate(-30.7595 18.057 14.6216)" fill="#D3FFFF"/>
<circle opacity="0.7" cx="26.6101" cy="21.1691" r="9.5" transform="rotate(-30.7595 26.6101 21.1691)" fill="#6DFFDC"/>
<circle opacity="0.7" cx="16.6344" cy="28.851" r="7" transform="rotate(-30.7595 16.6344 28.851)" fill="#FFDE89"/>
<path fill-rule="evenodd" clip-rule="evenodd" d="M29.1163 4.05664C29.4649 4.22394 29.6118 4.64209 29.4445 4.99062L25.3195 13.5844C25.1522 13.9329 24.734 14.0798 24.3855 13.9125C24.037 13.7452 23.8901 13.3271 24.0574 12.9785L28.1824 4.3848C28.3497 4.03627 28.7678 3.88935 29.1163 4.05664ZM23.6248 4.06161C23.9706 4.2345 24.1107 4.65498 23.9379 5.00076L15.5447 21.7872C15.3718 22.1329 14.9513 22.2731 14.6055 22.1002C14.2597 21.9273 14.1196 21.5068 14.2925 21.1611L22.6857 4.37466C22.8585 4.02888 23.279 3.88872 23.6248 4.06161ZM19.51 6.4722C19.8534 6.6498 19.9878 7.07215 19.8102 7.41554L14.6543 17.3843C14.4767 17.7277 14.0543 17.8621 13.7109 17.6845C13.3676 17.5069 13.2332 17.0845 13.4108 16.7411L18.5667 6.77238C18.7443 6.42899 19.1666 6.29459 19.51 6.4722ZM26.6899 5.00076C26.8628 4.65498 26.7226 4.2345 26.3768 4.06161C26.031 3.88872 25.6106 4.02888 25.4377 4.37466L17.1877 20.8746C17.0148 21.2204 17.1549 21.6409 17.5007 21.8138C17.8465 21.9867 18.267 21.8465 18.4399 21.5007L26.6899 5.00076ZM23.6002 17.3664C23.7681 17.0181 23.6219 16.5997 23.2737 16.4318C22.9255 16.2639 22.507 16.4101 22.3391 16.7584L13.0579 36.0083C12.89 36.3566 13.0362 36.775 13.3844 36.9429C13.7327 37.1108 14.1511 36.9646 14.319 36.6164L23.6002 17.3664ZM25.6763 17.1176C26.0255 17.2834 26.1741 17.701 26.0082 18.0502L19.477 31.8002C19.3111 32.1494 18.8936 32.298 18.5443 32.1321C18.1951 31.9663 18.0465 31.5487 18.2124 31.1995L24.7436 17.4495C24.9095 17.1003 25.3271 16.9517 25.6763 17.1176ZM26.6968 22.5168C26.8614 22.167 26.7113 21.75 26.3615 21.5854C26.0117 21.4208 25.5947 21.5709 25.4301 21.9207L22.6801 27.7645C22.5154 28.1143 22.6656 28.5313 23.0154 28.6959C23.3652 28.8605 23.7822 28.7104 23.9468 28.3606L26.6968 22.5168Z" fill="black"/>
</svg>
