<svg width="40" height="40" viewBox="0 0 40 40" fill="none" xmlns="http://www.w3.org/2000/svg">
<rect width="40" height="40" rx="20" fill="white"/>
<circle opacity="0.7" cx="24.7388" cy="16.7387" r="10.5" transform="rotate(82.7657 24.7388 16.7387)" fill="#D3FFFF"/>
<circle opacity="0.7" cx="11.9774" cy="17.9772" r="3.55755" transform="rotate(82.7657 11.9774 17.9772)" fill="#6DFFDC"/>
<circle opacity="0.7" cx="13.8259" cy="26.8258" r="7" transform="rotate(82.7657 13.8259 26.8258)" fill="#FFDE89"/>
<path fill-rule="evenodd" clip-rule="evenodd" d="M21 8.16496C20.5388 8.16496 20.165 8.5388 20.165 8.99996C20.165 9.46112 20.5388 9.83496 21 9.83496C21.4611 9.83496 21.835 9.46112 21.835 8.99996C21.835 8.5388 21.4611 8.16496 21 8.16496ZM18.835 8.99996C18.835 7.80426 19.8043 6.83496 21 6.83496C22.1957 6.83496 23.165 7.80426 23.165 8.99996C23.165 10.1957 22.1957 11.165 21 11.165C19.8043 11.165 18.835 10.1957 18.835 8.99996ZM32.165 26C32.165 25.5388 32.5388 25.165 33 25.165C33.4611 25.165 33.835 25.5388 33.835 26C33.835 26.4611 33.4611 26.835 33 26.835C32.5388 26.835 32.165 26.4611 32.165 26ZM33 23.835C31.8043 23.835 30.835 24.8043 30.835 26C30.835 27.1957 31.8043 28.165 33 28.165C34.1957 28.165 35.165 27.1957 35.165 26C35.165 24.8043 34.1957 23.835 33 23.835ZM7.99996 27.165C7.5388 27.165 7.16496 27.5388 7.16496 28C7.16496 28.4611 7.5388 28.835 7.99996 28.835C8.46112 28.835 8.83496 28.4611 8.83496 28C8.83496 27.5388 8.46112 27.165 7.99996 27.165ZM5.83496 28C5.83496 26.8043 6.80426 25.835 7.99996 25.835C9.19566 25.835 10.165 26.8043 10.165 28C10.165 29.1957 9.19566 30.165 7.99996 30.165C6.80426 30.165 5.83496 29.1957 5.83496 28ZM16 31.165C15.5388 31.165 15.165 31.5388 15.165 32C15.165 32.4611 15.5388 32.835 16 32.835C16.4611 32.835 16.835 32.4611 16.835 32C16.835 31.5388 16.4611 31.165 16 31.165ZM13.835 32C13.835 30.8043 14.8043 29.835 16 29.835C17.1957 29.835 18.165 30.8043 18.165 32C18.165 33.1957 17.1957 34.165 16 34.165C14.8043 34.165 13.835 33.1957 13.835 32ZM7.16496 13C7.16496 12.5388 7.5388 12.165 7.99996 12.165C8.46112 12.165 8.83496 12.5388 8.83496 13C8.83496 13.4611 8.46112 13.835 7.99996 13.835C7.5388 13.835 7.16496 13.4611 7.16496 13ZM7.99996 10.835C6.80426 10.835 5.83496 11.8043 5.83496 13C5.83496 14.1957 6.80426 15.165 7.99996 15.165C9.19566 15.165 10.165 14.1957 10.165 13C10.165 11.8043 9.19566 10.835 7.99996 10.835ZM28.5 10.165C26.6581 10.165 25.165 11.6581 25.165 13.5C25.165 15.3418 26.6581 16.835 28.5 16.835C30.3418 16.835 31.835 15.3418 31.835 13.5C31.835 11.6581 30.3418 10.165 28.5 10.165ZM23.835 13.5C23.835 10.9236 25.9236 8.83496 28.5 8.83496C31.0764 8.83496 33.165 10.9236 33.165 13.5C33.165 16.0764 31.0764 18.165 28.5 18.165C26.7363 18.165 25.2013 17.1863 24.4083 15.7424L15.8779 18.8852C16.0636 19.3884 16.165 19.9323 16.165 20.5C16.165 23.0764 14.0764 25.165 11.5 25.165C8.92355 25.165 6.83496 23.0764 6.83496 20.5C6.83496 17.9236 8.92355 15.835 11.5 15.835C13.0278 15.835 14.3842 16.5695 15.2351 17.7046L23.9417 14.4969C23.8718 14.1757 23.835 13.8421 23.835 13.5ZM21.165 29.5C21.165 27.6581 22.6581 26.165 24.5 26.165C26.3418 26.165 27.835 27.6581 27.835 29.5C27.835 31.3418 26.3418 32.835 24.5 32.835C22.6581 32.835 21.165 31.3418 21.165 29.5ZM24.5 24.835C21.9236 24.835 19.835 26.9236 19.835 29.5C19.835 32.0764 21.9236 34.165 24.5 34.165C27.0764 34.165 29.165 32.0764 29.165 29.5C29.165 26.9236 27.0764 24.835 24.5 24.835ZM11.5 17.165C9.65809 17.165 8.16496 18.6581 8.16496 20.5C8.16496 22.3418 9.65809 23.835 11.5 23.835C13.3418 23.835 14.835 22.3418 14.835 20.5C14.835 18.6581 13.3418 17.165 11.5 17.165Z" fill="black"/>
<line x1="28.1451" y1="17.6613" x2="26.1451" y2="25.6613" stroke="black" stroke-width="1.33"/>
<path d="M28.0002 27.9997L31.5 26.5" stroke="black" stroke-width="1.33"/>
<path d="M17.5 31.5L20.5 30.5" stroke="black" stroke-width="1.33"/>
<path d="M9 26.5L10.0001 24.5" stroke="black" stroke-width="1.33"/>
<path d="M10 17L8.5 14.5" stroke="black" stroke-width="1.33"/>
<path d="M25 11.5L22.5 9.69995" stroke="black" stroke-width="1.33"/>
<path d="M14.5 23.5L20.5 28.5" stroke="black" stroke-width="1.33"/>
</svg>
