<svg width="40" height="40" viewBox="0 0 40 40" fill="none" xmlns="http://www.w3.org/2000/svg">
<rect width="40" height="40" rx="20" fill="#FDFEFC"/>
<circle opacity="0.7" cx="24.7379" cy="16.7387" r="10.5" transform="rotate(82.7657 24.7379 16.7387)" fill="#D3FFFF"/>
<circle opacity="0.7" cx="11.9774" cy="17.9772" r="3.55755" transform="rotate(82.7657 11.9774 17.9772)" fill="#6DFFDC"/>
<circle opacity="0.7" cx="13.8259" cy="26.8258" r="7" transform="rotate(82.7657 13.8259 26.8258)" fill="#FFDE89"/>
<path fill-rule="evenodd" clip-rule="evenodd" d="M20.8779 13C19.857 13 19.0294 13.8276 19.0294 14.8485C19.0294 15.8672 19.8534 16.6935 20.8712 16.6971L20.878 16.697L20.8848 16.6971C21.9025 16.6934 22.7264 15.8672 22.7264 14.8485C22.7264 13.8276 21.8988 13 20.8779 13ZM21.378 17.6533C22.7127 17.4169 23.7264 16.2511 23.7264 14.8485C23.7264 13.2753 22.4511 12 20.8779 12C19.3047 12 18.0294 13.2753 18.0294 14.8485C18.0294 16.2512 19.0432 17.4171 20.378 17.6534V21.9357C19.7539 22.0142 19.175 22.2379 18.6762 22.5719L14.9352 19.6355C15.2337 19.1851 15.4076 18.6449 15.4076 18.064C15.4076 16.4908 14.1322 15.2155 12.559 15.2155C10.9858 15.2155 9.71047 16.4908 9.71047 18.064C9.71047 19.6372 10.9858 20.9126 12.559 20.9126C13.1885 20.9126 13.7704 20.7083 14.2419 20.3626L17.9098 23.2416C17.365 23.8571 17.0086 24.6433 16.9312 25.5098H12.6534C12.4171 24.1749 11.2512 23.1611 9.84854 23.1611C8.27534 23.1611 7 24.4365 7 26.0097C7 27.5829 8.27534 28.8582 9.84854 28.8582C11.2511 28.8582 12.4169 27.8445 12.6533 26.5098H16.9672C17.2744 28.3925 18.9083 29.8294 20.8778 29.8294C22.8473 29.8294 24.4812 28.3925 24.7884 26.5098H29.2081C29.4996 27.7734 30.6317 28.7156 31.9839 28.7156C33.5571 28.7156 34.8324 27.4403 34.8324 25.8671C34.8324 24.2938 33.5571 23.0185 31.9839 23.0185C30.5317 23.0185 29.3333 24.1052 29.1575 25.5098H24.8244C24.7472 24.6464 24.3932 23.8627 23.8516 23.2482L27.5109 20.4299C27.9644 20.7347 28.5104 20.9126 29.0979 20.9126C30.6711 20.9126 31.9465 19.6372 31.9465 18.064C31.9465 16.4908 30.6711 15.2155 29.0979 15.2155C27.5247 15.2155 26.2494 16.4908 26.2494 18.064C26.2494 18.6847 26.4479 19.259 26.7849 19.7269L23.0856 22.576C22.5854 22.2399 22.0045 22.0147 21.378 21.9358V17.6533ZM30.1408 26.0105C30.1408 26.0103 30.1408 26.01 30.1408 26.0098C30.1408 25.989 30.1395 25.9685 30.1371 25.9484C30.1359 25.9214 30.1353 25.8943 30.1353 25.8671C30.1353 24.8461 30.9629 24.0185 31.9839 24.0185C33.0048 24.0185 33.8324 24.8461 33.8324 25.8671C33.8324 26.888 33.0048 27.7156 31.9839 27.7156C31.0112 27.7156 30.214 26.9644 30.1408 26.0105ZM9.84854 24.1611C10.8474 24.1611 11.6612 24.9533 11.6959 25.9437C11.6931 25.9653 11.6916 25.9874 11.6916 26.0098C11.6916 26.0322 11.6931 26.0542 11.6959 26.0758C11.6611 27.0661 10.8473 27.8582 9.84854 27.8582C8.82762 27.8582 8 27.0306 8 26.0097C8 24.9887 8.82762 24.1611 9.84854 24.1611ZM14.4076 18.064C14.4076 18.5622 14.2105 19.0143 13.8901 19.3467C13.8782 19.3576 13.8668 19.3691 13.8558 19.3813C13.5222 19.7099 13.0643 19.9126 12.559 19.9126C11.5381 19.9126 10.7105 19.0849 10.7105 18.064C10.7105 17.0431 11.5381 16.2155 12.559 16.2155C13.5799 16.2155 14.4076 17.0431 14.4076 18.064ZM20.8778 22.9045C19.2417 22.9045 17.9153 24.2308 17.9153 25.8669C17.9153 27.5031 19.2417 28.8294 20.8778 28.8294C22.5139 28.8294 23.8402 27.5031 23.8402 25.8669C23.8402 24.2308 22.5139 22.9045 20.8778 22.9045ZM29.0979 16.2155C28.077 16.2155 27.2494 17.0431 27.2494 18.064C27.2494 19.0849 28.077 19.9126 29.0979 19.9126C30.1188 19.9126 30.9465 19.0849 30.9465 18.064C30.9465 17.0431 30.1188 16.2155 29.0979 16.2155Z" fill="black"/>
</svg>
