<svg width="40" height="40" viewBox="0 0 40 40" fill="none" xmlns="http://www.w3.org/2000/svg">
<rect width="40" height="40" rx="20" fill="white"/>
<circle opacity="0.7" cx="13.1408" cy="13.1402" r="7.2813" transform="rotate(82.7657 13.1408 13.1402)" fill="#D3FFFF"/>
<circle opacity="0.7" cx="22.5557" cy="24.5562" r="11.2313" transform="rotate(82.7657 22.5557 24.5562)" fill="#6DFFDC"/>
<circle opacity="0.7" cx="10.3485" cy="27.3486" r="7.4677" transform="rotate(82.7657 10.3485 27.3486)" fill="#FFDE89"/>
<path fill-rule="evenodd" clip-rule="evenodd" d="M15.3317 13.3334C15.3317 10.7551 17.4218 8.66502 20 8.66502C22.5783 8.66502 24.6683 10.7551 24.6683 13.3334C24.6683 15.9116 22.5783 18.0017 20 18.0017C17.4218 18.0017 15.3317 15.9116 15.3317 13.3334ZM20 7.33502C16.6872 7.33502 14.0017 10.0206 14.0017 13.3334C14.0017 16.6461 16.6872 19.3317 20 19.3317C23.3128 19.3317 25.9983 16.6461 25.9983 13.3334C25.9983 10.0206 23.3128 7.33502 20 7.33502ZM14.6667 23.335C13.0758 23.335 11.5501 23.967 10.4252 25.0919C9.3003 26.2168 8.66833 27.7425 8.66833 29.3334V32C8.66833 32.3673 8.96607 32.665 9.33333 32.665C9.7006 32.665 9.99834 32.3673 9.99834 32V29.3334C9.99834 28.0952 10.4902 26.9078 11.3657 26.0323C12.2411 25.1569 13.4285 24.665 14.6667 24.665H25.3333C26.5715 24.665 27.7589 25.1569 28.6343 26.0323C29.5098 26.9078 30.0017 28.0952 30.0017 29.3334V32C30.0017 32.3673 30.2994 32.665 30.6667 32.665C31.0339 32.665 31.3317 32.3673 31.3317 32V29.3334C31.3317 27.7425 30.6997 26.2168 29.5748 25.0919C28.4499 23.967 26.9242 23.335 25.3333 23.335H14.6667Z" fill="black"/>
</svg>
