<svg width="40" height="40" viewBox="0 0 40 40" fill="none" xmlns="http://www.w3.org/2000/svg">
<rect width="40" height="40" rx="20" fill="#FDFEFC"/>
<circle opacity="0.7" cx="20.5" cy="14.5" r="10.5" fill="#D3FFFF"/>
<circle opacity="0.7" cx="24.5" cy="24.5" r="9.5" fill="#6DFFDC"/>
<circle opacity="0.7" cx="12" cy="26" r="7" fill="#FFDE89"/>
<path d="M16.3887 30H20.4341C20.869 30 21.2386 29.8476 21.5427 29.5427C21.8476 29.2386 22 28.869 22 28.4341V24.3887C21.2866 24.3017 20.6731 24.006 20.1595 23.5014C19.6466 22.9968 19.3901 22.3791 19.3901 21.6484C19.3901 20.9176 19.6466 20.2999 20.1595 19.7953C20.6731 19.2908 21.2866 18.995 22 18.908V14.8626C22 14.4277 21.8476 14.0581 21.5427 13.754C21.2386 13.4491 20.869 13.2967 20.4341 13.2967H16.2582C16.1712 12.6355 15.8842 12.0875 15.397 11.6525C14.9098 11.2175 14.3269 11 13.6484 11C12.9698 11 12.3869 11.2175 11.8997 11.6525C11.4125 12.0875 11.1255 12.6355 11.0385 13.2967H6.86264C6.42766 13.2967 6.05809 13.4491 5.75396 13.754C5.44912 14.0581 5.2967 14.4277 5.2967 14.8626V19.0385C4.63553 19.1255 4.08745 19.4125 3.65247 19.8997C3.21749 20.3869 3 20.9698 3 21.6484C3 22.3269 3.21749 22.9098 3.65247 23.397C4.08745 23.8842 4.63553 24.1712 5.2967 24.2582V28.4341C5.2967 28.869 5.44912 29.2386 5.75396 29.5427C6.05809 29.8476 6.42766 30 6.86264 30H10.908C10.995 29.2518 11.2995 28.6296 11.8214 28.1334C12.3434 27.6379 12.9524 27.3901 13.6484 27.3901C14.3443 27.3901 14.9533 27.6379 15.4753 28.1334C15.9973 28.6296 16.3017 29.2518 16.3887 30ZM20.4341 28.4341H17.6154C17.25 27.5119 16.68 26.8462 15.9054 26.437C15.1315 26.0284 14.3791 25.8242 13.6484 25.8242C12.9176 25.8242 12.1649 26.0284 11.3903 26.437C10.6164 26.8462 10.0467 27.5119 9.68132 28.4341H6.86264V22.7445H5.58379C5.2532 22.7097 5.00092 22.5837 4.82692 22.3666C4.65293 22.1488 4.56593 21.9093 4.56593 21.6484C4.56593 21.3874 4.65293 21.1479 4.82692 20.9301C5.00092 20.713 5.2532 20.587 5.58379 20.5522H6.86264V14.8626H12.5522V13.5838C12.587 13.2532 12.713 13.0009 12.9301 12.8269C13.1479 12.6529 13.3874 12.5659 13.6484 12.5659C13.9093 12.5659 14.1488 12.6529 14.3666 12.8269C14.5837 13.0009 14.7097 13.2532 14.7445 13.5838V14.8626H20.4341V17.7335C19.6337 18.0467 18.9986 18.56 18.5288 19.2734C18.0591 19.9867 17.8242 20.7784 17.8242 21.6484C17.8242 22.5009 18.0591 23.2839 18.5288 23.9973C18.9986 24.7106 19.6337 25.2326 20.4341 25.5632V28.4341Z" fill="black"/>
<path d="M31.3889 29.9999H35.434C35.8689 29.9999 36.2385 29.8456 36.5426 29.5371C36.8474 29.2294 36.9998 28.8554 36.9998 28.4152V24.3214C36.9997 23.9119 37 23.9119 36.9999 23.1107C36.9999 23.1107 37 23.0491 37 22.3096C37 21.5701 37 21.1079 37 20.3067C37 19.9061 36.9998 19.5055 36.9998 18.7749V14.6811C36.9998 14.2409 36.8474 13.8669 36.5426 13.5591C36.2385 13.2506 35.9783 13.3045 35.5434 13.3045L31.6226 13.3044C31.1543 13.3044 29.8697 13.3044 29.8697 13.3044L28.6878 13.3044H27.5526C27.5526 13.3044 26.1316 13.3044 26 13.3044H21C20.565 13.3044 20.3758 13.3044 20.3758 13.3044C20.3758 13.3044 20.5 14.0598 20.5 14.5V18C19.8389 18.088 19.0883 19.2855 18.6533 19.7786C18.2184 20.2716 18.0009 20.8614 18.0009 21.5481C18.0009 22.2348 17.9618 23.0183 18.3967 23.5113C18.8317 24.0043 19.7146 25.0256 20.3758 25.1136L20.2975 28.4152C20.2975 28.8554 20.2975 29.6153 20.1858 29.9999C20.1858 29.9999 21.4284 29.9999 21.8633 29.9999H25.9084C25.9954 29.2427 26.2999 28.6131 26.8218 28.1109C27.3438 27.6094 27.9527 27.3587 28.6487 27.3587C29.3446 27.3587 29.9535 27.6094 30.4755 28.1109C30.9974 28.6131 31.3019 29.2427 31.3889 29.9999ZM35.434 28.4152H32.6155C32.2501 27.482 31.6801 26.8083 30.9056 26.3942C30.1317 25.9807 29.3794 25.774 28.6487 25.774C27.9179 25.774 27.1653 25.9807 26.3907 26.3942C25.6168 26.8083 25.0472 27.482 24.6819 28.4152H21.959L22 24.5L20.5846 23.8445C20.254 23.8093 19.3623 22.9299 19.1883 22.7102C19.0144 22.4897 18.7925 21.372 18.7925 21.1079C18.7925 20.8437 19.0144 20.5271 19.1883 20.3067C19.3623 20.087 20.0452 18.7396 20.3758 18.7044H21.959V14.6811H27.5526H28.0621H28.6878H29.3696H29.7448H35.434V17.5864C35.434 18.7044 35.434 19.5055 35.434 20.3067C35.4168 21.1079 35.4168 21.0286 35.4168 21.909C35.4168 22.7718 35.4168 23.1107 35.434 23.8445C35.4168 24.713 35.4168 24.713 35.434 25.5099V28.4152Z" fill="black"/>
</svg>
