<svg width="40" height="40" viewBox="0 0 40 40" fill="none" xmlns="http://www.w3.org/2000/svg">
<rect width="40" height="40" rx="20" fill="#FDFEFC"/>
<circle opacity="0.7" cx="14" cy="12" r="8" fill="#D3FFFF"/>
<circle opacity="0.7" cx="21.5" cy="22.5" r="7.5" fill="#6DFFDC"/>
<circle opacity="0.7" cx="11.5" cy="24.5" r="7.5" fill="#FFDE89"/>
<path d="M14.8971 19.4729C15.2525 18.7399 15.6354 18.0402 16.0459 17.3739C16.4572 16.7076 16.9183 16.0412 17.4292 15.3749L15.4635 15.0084C15.3968 14.9862 15.3302 14.9862 15.2636 15.0084C15.1969 15.0306 15.1414 15.0639 15.097 15.1083L12.0652 18.1402C12.0429 18.1624 12.0376 18.1899 12.0492 18.2228C12.0598 18.2566 12.0763 18.2846 12.0985 18.3068L14.8971 19.4729ZM30.556 9.91091C28.7569 9.99975 27.0244 10.4493 25.3586 11.2596C23.6927 12.0707 22.1602 13.1871 20.7609 14.6086C19.8058 15.5637 18.9617 16.5743 18.2288 17.6404C17.4958 18.7066 16.9183 19.7394 16.4963 20.7389L20.2944 24.5037C21.2717 24.0817 22.2992 23.5042 23.3769 22.7712C24.4537 22.0383 25.4696 21.1942 26.4247 20.2391C27.824 18.8176 28.9293 17.285 29.7404 15.6414C30.5507 13.9978 31.0114 12.2653 31.1224 10.444C31.1224 10.3773 31.1113 10.3107 31.0891 10.2441C31.0669 10.1774 31.0225 10.1219 30.9558 10.0775C30.8892 10.0109 30.8226 9.96644 30.7559 9.94422C30.6893 9.92201 30.6227 9.91091 30.556 9.91091ZM23.3263 17.6737C22.882 17.2073 22.6599 16.652 22.6599 16.0079C22.6599 15.3638 22.882 14.8196 23.3263 14.3754C23.7927 13.9311 24.348 13.709 24.9921 13.709C25.6362 13.709 26.1915 13.9311 26.6579 14.3754C27.1022 14.8196 27.3243 15.3638 27.3243 16.0079C27.3243 16.652 27.1022 17.2073 26.6579 17.6737C26.1915 18.118 25.6362 18.3401 24.9921 18.3401C24.348 18.3401 23.7927 18.118 23.3263 17.6737ZM21.5271 26.1029L22.7266 28.9015C22.7266 28.946 22.7434 28.9682 22.7772 28.9682C22.8101 28.9682 22.8487 28.9571 22.8931 28.9348L25.8917 25.9363C25.9361 25.8919 25.9694 25.8364 25.9916 25.7697C26.0138 25.7031 26.0249 25.6365 26.0249 25.5698L25.6251 23.6041C24.9588 24.0928 24.2924 24.5428 23.6261 24.9541C22.9598 25.3646 22.2601 25.7475 21.5271 26.1029ZM33.0215 9.27789C33.0881 11.6101 32.6714 13.8259 31.7714 15.9253C30.8723 18.0238 29.4788 20.017 27.5908 21.905L27.3576 22.1382L27.9906 25.17C28.0573 25.5698 28.0293 25.9585 27.9067 26.3361C27.7849 26.7137 27.5797 27.0469 27.291 27.3356L23.3596 31.267C23.0486 31.578 22.6821 31.6944 22.2601 31.6162C21.8381 31.5389 21.5494 31.3003 21.3939 30.9005L19.5615 26.636L14.364 21.4052L10.0995 19.6061C9.69965 19.4506 9.46111 19.1619 9.38381 18.7399C9.30563 18.3179 9.42201 17.9514 9.73297 17.6404L13.6644 13.6757C13.9531 13.4092 14.2921 13.2146 14.6812 13.092C15.0694 12.9703 15.4635 12.9539 15.8633 13.0427L18.8951 13.6424L19.0124 13.5251C19.0453 13.4923 19.0728 13.4536 19.095 13.4092C20.983 11.5434 22.9767 10.1552 25.0761 9.24457C27.1746 8.33391 29.3899 7.923 31.7221 8.01185C31.8776 8.01185 32.0331 8.04516 32.1885 8.1118C32.344 8.17843 32.4884 8.27838 32.6217 8.41165C32.7549 8.5227 32.8491 8.65597 32.9042 8.81145C32.9602 8.96693 32.9993 9.12241 33.0215 9.27789ZM11.1989 25.1034C11.843 24.4593 12.6315 24.1314 13.5644 24.1199C14.4973 24.1092 15.2858 24.4371 15.9299 25.1034C16.5962 25.7475 16.9236 26.536 16.9121 27.4689C16.9014 28.4018 16.574 29.1903 15.9299 29.8344C15.4191 30.3453 14.5919 30.7784 13.4485 31.1338C12.3041 31.4891 10.8213 31.7779 9 32C9.22211 30.2009 9.51663 28.7296 9.88356 27.5862C10.2496 26.4419 10.6881 25.6143 11.1989 25.1034ZM12.6315 26.5027C12.3872 26.747 12.154 27.1633 11.9319 27.7514C11.7098 28.3405 11.5543 28.9348 11.4654 29.5345C12.0874 29.4679 12.6871 29.3235 13.2646 29.1014C13.8421 28.8793 14.253 28.6461 14.4973 28.4018C14.7638 28.1352 14.9024 27.8132 14.9131 27.4356C14.9246 27.058 14.7971 26.7359 14.5306 26.4694C14.2641 26.2029 13.9473 26.0749 13.5804 26.0856C13.2144 26.0971 12.8981 26.2362 12.6315 26.5027Z" fill="black"/>
</svg>
