<svg width="40" height="40" viewBox="0 0 40 40" fill="none" xmlns="http://www.w3.org/2000/svg">
<rect width="40" height="40" rx="20" fill="white"/>
<circle opacity="0.7" cx="24" cy="28" r="8" fill="#D3FFFF"/>
<circle opacity="0.7" cx="27" cy="20" r="8" fill="#99FFE7"/>
<circle opacity="0.7" cx="14.5" cy="23.5" r="7.5" fill="#FFDE89"/>
<path d="M31.335 20C31.335 26.2601 26.2601 31.335 20 31.335C13.7399 31.335 8.665 26.2601 8.665 20C8.665 13.7399 13.7399 8.665 20 8.665C26.2601 8.665 31.335 13.7399 31.335 20Z" stroke="black" stroke-width="1.33"/>
<path d="M24.4694 19.7853C24.3344 19.3505 24.2143 19.3805 21.8209 18.4509V13.2555C21.8222 13.0954 21.7721 12.9392 21.6781 12.8097C21.5841 12.6801 21.4511 12.584 21.2985 12.5354C21.1459 12.4868 20.9817 12.4883 20.8301 12.5396C20.6784 12.5909 20.5471 12.6894 20.4554 12.8206L15.6386 19.5679C15.5726 19.6607 15.5287 19.7674 15.5101 19.8797C15.4915 19.992 15.4987 20.1071 15.5313 20.2162C15.5638 20.3253 15.6208 20.4256 15.6979 20.5094C15.775 20.5932 15.8702 20.6584 15.9762 20.7L18.1746 21.5546V26.7501C18.1746 26.9489 18.2536 27.1396 18.3943 27.2802C18.535 27.4208 18.7259 27.4998 18.9248 27.4998C19.4725 27.4998 19.21 27.6497 24.3569 20.4376C24.4244 20.3447 24.4696 20.2376 24.4891 20.1245C24.5086 20.0115 24.5019 19.8954 24.4694 19.7853ZM19.6751 24.411C19.6751 20.9099 19.8327 20.5875 19.1949 20.3401L17.4168 19.6504L20.3204 15.5945C20.3204 19.0956 20.1628 19.418 20.8006 19.6654L22.5787 20.3551L19.6751 24.411Z" fill="black"/>
</svg>
