<svg width="339" height="276" viewBox="0 0 339 276" fill="none" xmlns="http://www.w3.org/2000/svg">
<circle cx="203.5" cy="140.5" r="135.5" fill="#DCF4EF"/>
<circle cx="77.5" cy="140.5" r="77.5" fill="#F1FCDC"/>
<circle cx="102" cy="218" r="48" fill="#E3F1F6"/>
<path d="M237.287 246.218H176.702C172.8 246.218 169.601 243.079 169.601 239.106V200.658H244.324V239.106C244.388 243.079 241.189 246.218 237.287 246.218Z" fill="#5F8199"/>
<path d="M216.559 265.763H197.43C193.336 265.763 189.561 263.712 187.322 260.252L178.174 246.219H235.752L226.603 260.252C224.428 263.712 220.653 265.763 216.559 265.763Z" fill="#3B4F66"/>
<path d="M244.389 238.465H169.665C168.578 238.465 167.746 237.632 167.746 236.542C167.746 235.453 168.578 234.62 169.665 234.62H244.389C245.476 234.62 246.308 235.453 246.308 236.542C246.308 237.568 245.412 238.465 244.389 238.465Z" fill="white"/>
<path d="M244.389 227.765H169.665C168.578 227.765 167.746 226.932 167.746 225.842C167.746 224.753 168.578 223.92 169.665 223.92H244.389C245.476 223.92 246.308 224.753 246.308 225.842C246.308 226.932 245.412 227.765 244.389 227.765Z" fill="white"/>
<path d="M244.389 217.063H169.665C168.578 217.063 167.746 216.23 167.746 215.14C167.746 214.051 168.578 213.218 169.665 213.218H244.389C245.476 213.218 246.308 214.051 246.308 215.14C246.308 216.23 245.412 217.063 244.389 217.063Z" fill="white"/>
<path d="M209.714 46.4215C216.239 57.7634 200.885 63.2742 183.228 73.5268C165.571 83.7153 152.392 94.6728 145.866 83.3949C139.341 72.053 147.21 50.3303 164.867 40.1418C182.524 29.8891 203.188 35.0795 209.714 46.4215Z" fill="white"/>
<path d="M256.479 107.041C266.715 82.8829 264.028 28.8004 211.057 18.0352C250.21 20.0857 281.43 52.5736 282.07 91.8539C282.325 107.297 277.911 121.715 270.17 133.761C258.782 151.511 252.705 172.209 252.705 193.291C252.705 197.392 249.378 200.724 245.284 200.724H168.769C164.611 200.724 161.284 197.392 161.284 193.227C161.284 183.743 160.132 174.259 157.765 165.16C162.947 184.32 171.84 194.188 190.329 194.188C206.259 194.188 217.71 185.025 224.556 168.172C232.808 147.474 246.051 131.583 256.479 107.041Z" fill="#B4CCC6"/>
<path d="M170.305 87.8164C167.106 97.5564 169.409 110.949 177.342 122.739C185.275 134.53 196.791 141.707 207.027 142.347C210.225 132.607 207.922 119.215 199.989 107.425C192.056 95.634 180.541 88.4572 170.305 87.8164Z" fill="#88BFB1"/>
<path d="M207.026 202.644C205.939 202.644 205.107 201.811 205.107 200.722V142.41C205.107 141.321 205.939 140.488 207.026 140.488C208.114 140.488 208.946 141.321 208.946 142.41V200.722C208.946 201.747 208.05 202.644 207.026 202.644Z" fill="#509993"/>
<path d="M254.625 71.6687C258.783 84.3563 255.776 101.658 245.476 116.972C235.176 132.287 220.27 141.579 206.963 142.412C202.805 129.724 205.811 112.423 216.111 97.108C226.411 81.7932 241.318 72.5017 254.625 71.6687Z" fill="#509993"/>
<path d="M245.284 202.645H168.769C163.587 202.645 159.365 198.416 159.365 193.225C159.365 172.143 153.543 152.087 142.539 135.298C134.35 122.739 130 108.193 130 93.1342C130 82.369 132.175 71.9241 136.462 62.1841C140.62 52.7646 146.506 44.3062 153.991 37.1934C161.476 30.0807 170.177 24.634 179.773 20.9815C189.753 17.2008 200.309 15.5348 211.121 16.1115C251.298 18.2261 283.285 51.483 283.989 91.7886C284.245 107.103 280.023 121.97 271.834 134.785C260.638 152.279 254.688 172.464 254.688 193.289C254.688 198.416 250.466 202.645 245.284 202.645ZM206.963 19.8281C188.09 19.8281 170.369 26.8767 156.678 39.9488C141.963 53.918 133.903 72.8212 133.903 93.1342C133.903 107.424 137.997 121.265 145.802 133.183C157.19 150.613 163.203 171.374 163.203 193.225C163.203 196.301 165.698 198.8 168.769 198.8H245.284C248.355 198.8 250.786 196.301 250.786 193.289C250.786 171.759 256.927 150.805 268.571 132.671C276.376 120.496 280.406 106.399 280.15 91.8526C279.511 53.5335 249.122 21.9427 210.929 19.9562C209.585 19.8281 208.306 19.8281 206.963 19.8281Z" fill="#5F8199"/>
</svg>
