<svg width="499" height="291" viewBox="0 0 499 291" fill="none" xmlns="http://www.w3.org/2000/svg">
<path d="M409.349 87.7228C456.665 151.51 350.182 257.194 263.72 283.177C177.259 309.159 59.6426 268.297 36.8376 192.103C14.0326 115.863 48.6441 31.1275 135.106 5.14497C174.476 -6.67755 233.733 1.81848 276.604 31.2175C332.225 69.4271 373.526 39.4438 409.349 87.7228Z" fill="#EEF5E5"/>
<path d="M333.886 169.266H298.09C295.784 169.266 293.894 167.411 293.894 165.064V142.347H338.044V165.064C338.082 167.411 336.192 169.266 333.886 169.266Z" fill="#5F8199"/>
<path d="M321.639 180.814H310.337C307.918 180.814 305.688 179.602 304.365 177.558L298.959 169.266H332.979L327.574 177.558C326.289 179.602 324.058 180.814 321.639 180.814Z" fill="#3B4F66"/>
<path d="M338.082 164.685H293.932C293.289 164.685 292.798 164.193 292.798 163.549C292.798 162.906 293.289 162.413 293.932 162.413H338.082C338.725 162.413 339.216 162.906 339.216 163.549C339.216 164.155 338.687 164.685 338.082 164.685Z" fill="white"/>
<path d="M338.082 158.362H293.932C293.289 158.362 292.798 157.87 292.798 157.227C292.798 156.583 293.289 156.091 293.932 156.091H338.082C338.725 156.091 339.216 156.583 339.216 157.227C339.216 157.87 338.687 158.362 338.082 158.362Z" fill="white"/>
<path d="M338.082 152.04H293.932C293.289 152.04 292.798 151.547 292.798 150.904C292.798 150.26 293.289 149.768 293.932 149.768H338.082C338.725 149.768 339.216 150.26 339.216 150.904C339.216 151.547 338.687 152.04 338.082 152.04Z" fill="white"/>
<path d="M317.595 51.2161C321.45 57.9175 312.378 61.1735 301.945 67.2312C291.513 73.2511 283.726 79.7253 279.87 73.0618C276.015 66.3604 280.664 53.5256 291.097 47.5057C301.53 41.448 313.739 44.5147 317.595 51.2161Z" fill="white"/>
<path d="M345.226 87.0324C351.274 72.7588 349.686 40.8042 318.388 34.4436C341.522 35.6552 359.968 54.8506 360.346 78.0594C360.497 87.1838 357.889 95.7025 353.315 102.82C346.587 113.308 342.996 125.537 342.996 137.993C342.996 140.416 341.03 142.385 338.611 142.385H293.402C290.945 142.385 288.98 140.416 288.98 137.955C288.98 132.352 288.299 126.748 286.901 121.372C289.963 132.693 295.217 138.523 306.141 138.523C315.553 138.523 322.319 133.109 326.364 123.152C331.24 110.923 339.065 101.533 345.226 87.0324Z" fill="#B4CCC6"/>
<path d="M294.31 75.6742C292.42 81.4291 293.781 89.342 298.468 96.3084C303.155 103.275 309.959 107.515 316.007 107.894C317.897 102.139 316.536 94.226 311.849 87.2596C307.162 80.2932 300.358 76.0528 294.31 75.6742Z" fill="#88BFB1"/>
<path d="M316.007 143.521C315.364 143.521 314.873 143.029 314.873 142.385V107.932C314.873 107.288 315.364 106.796 316.007 106.796C316.649 106.796 317.141 107.288 317.141 107.932V142.385C317.141 142.991 316.612 143.521 316.007 143.521Z" fill="#509993"/>
<path d="M344.13 66.1332C346.587 73.6296 344.81 83.8521 338.724 92.9008C332.639 101.95 323.831 107.439 315.969 107.932C313.512 100.435 315.289 90.2127 321.374 81.164C327.46 72.1152 336.268 66.6254 344.13 66.1332Z" fill="#509993"/>
<path d="M338.611 143.521H293.403C290.341 143.521 287.846 141.022 287.846 137.955C287.846 125.499 284.406 113.649 277.905 103.729C273.066 96.3084 270.496 87.7139 270.496 78.8166C270.496 72.456 271.781 66.2847 274.314 60.5298C276.771 54.9643 280.248 49.9666 284.671 45.7641C289.093 41.5615 294.234 38.3433 299.904 36.1853C305.801 33.9515 312.038 32.9671 318.426 33.3078C342.164 34.5572 361.064 54.207 361.48 78.0215C361.631 87.0703 359.137 95.854 354.298 103.426C347.683 113.762 344.168 125.688 344.168 137.993C344.168 141.022 341.673 143.521 338.611 143.521ZM315.969 35.5037C304.818 35.5037 294.348 39.6684 286.258 47.3921C277.564 55.6457 272.802 66.8147 272.802 78.8166C272.802 87.2596 275.221 95.4375 279.832 102.48C286.561 112.778 290.114 125.045 290.114 137.955C290.114 139.773 291.588 141.249 293.403 141.249H338.611C340.426 141.249 341.862 139.773 341.862 137.993C341.862 125.272 345.491 112.891 352.37 102.177C356.982 94.9832 359.363 86.6538 359.212 78.0594C358.834 55.4186 340.879 36.7532 318.313 35.5795C317.519 35.5038 316.763 35.5037 315.969 35.5037Z" fill="#5F8199"/>
<path fill-rule="evenodd" clip-rule="evenodd" d="M188.621 72.8725C180.532 69.1621 163.371 61.8928 160.876 61.2113C158.571 60.6055 152.938 62.4228 149.574 62.6121L148.402 62.3093C148.44 62.0064 148.478 61.7413 148.478 61.4385C148.478 59.5075 147.306 57.8795 145.605 57.198C145.076 56.9709 142.921 56.1758 142.392 55.9486C141.636 55.6079 140.805 55.4186 139.935 55.4186C139.86 55.4186 139.784 55.4186 139.708 55.4186L128.104 11.9921C127.915 11.2728 127.197 10.8563 126.478 11.0456C125.722 11.2349 125.382 12.1057 125.533 13.5066C126.403 22.366 128.444 40.88 129.124 43.4167C129.729 45.7262 134.341 49.6637 136.193 52.5033L137.176 56.1379C135.286 57.1602 133.963 59.1668 133.963 61.4763C133.963 62.65 134.303 63.748 134.908 64.6945L103.156 96.4977C102.627 97.0277 102.627 97.8606 103.156 98.3907C103.723 98.9586 104.63 98.8072 105.764 97.9742C113.022 92.7873 127.99 81.9969 129.805 80.1796C131.506 78.4759 132.602 72.2667 134.114 69.2378L136.76 66.5875C137.062 66.7768 137.365 66.9283 137.705 67.0797L134.454 240.672H145.416L142.165 67.0797C142.354 67.004 145.114 65.9439 145.643 65.7167C146.172 65.4896 146.626 65.1867 147.042 64.8081L188.584 75.977C189.302 76.1663 190.02 75.7499 190.209 75.0305C190.474 74.1597 189.907 73.4404 188.621 72.8725Z" fill="#8FA7B8"/>
<path d="M138.385 66.1332C135.777 66.1332 133.66 64.013 133.66 61.4006C133.66 58.7882 135.777 56.668 138.385 56.668C140.994 56.668 143.11 58.7882 143.11 61.4006C143.11 64.013 140.956 66.1332 138.385 66.1332ZM138.385 57.6902C136.344 57.6902 134.681 59.3561 134.681 61.4006C134.681 63.4451 136.344 65.111 138.385 65.111C140.427 65.111 142.09 63.4451 142.09 61.4006C142.09 59.3561 140.427 57.6902 138.385 57.6902Z" fill="white"/>
<path d="M43.8857 151.737C45.4355 169.683 58.3253 189.522 79.1908 203C100.056 216.479 123.454 220.076 140.389 214.056C138.839 196.11 125.949 176.271 105.084 162.792C84.2182 149.351 60.8201 145.755 43.8857 151.737Z" fill="#88BFB1"/>
<path d="M140.389 214.586C140.313 214.586 140.2 214.548 140.124 214.51L48.573 155.334C48.3462 155.182 48.3084 154.917 48.4218 154.69C48.573 154.463 48.8376 154.425 49.0644 154.538L140.653 213.677C140.88 213.829 140.918 214.094 140.805 214.321C140.729 214.51 140.578 214.586 140.389 214.586Z" fill="#C5E0D6"/>
<path d="M72.7271 196.791C72.5381 196.791 72.3491 196.678 72.2735 196.45C72.1979 196.185 72.3113 195.92 72.5759 195.845L99.1114 187.061C99.376 186.985 99.6406 187.099 99.7162 187.364C99.7918 187.629 99.6784 187.894 99.4138 187.97L72.8783 196.753C72.8405 196.791 72.8027 196.791 72.7271 196.791Z" fill="#C5E0D6"/>
<path d="M61.1603 182.896C60.9335 182.896 60.7445 182.745 60.7067 182.555C60.6311 182.29 60.7823 182.025 61.0469 181.988L82.4416 176.308C82.7062 176.233 82.9708 176.384 83.0086 176.649C83.0842 176.914 82.933 177.179 82.6684 177.217L61.2737 182.896C61.2359 182.896 61.1981 182.896 61.1603 182.896Z" fill="#C5E0D6"/>
<path d="M51.3702 168.623C51.1434 168.623 50.9544 168.471 50.9166 168.244C50.841 167.979 51.03 167.752 51.2568 167.676L64.3355 164.572C64.6001 164.496 64.8269 164.685 64.9025 164.912C64.9781 165.177 64.7891 165.404 64.5623 165.48L51.4836 168.585C51.4458 168.623 51.408 168.623 51.3702 168.623Z" fill="#C5E0D6"/>
<path d="M80.8164 176.081C80.5896 176.081 80.4006 175.93 80.3628 175.703L76.6962 153.819C76.6584 153.554 76.8096 153.327 77.0742 153.289C77.3388 153.251 77.5656 153.403 77.6034 153.668L81.27 175.551C81.3078 175.816 81.1566 176.043 80.892 176.081C80.8542 176.081 80.8164 176.081 80.8164 176.081Z" fill="#C5E0D6"/>
<path d="M62.7102 164.382C62.4834 164.382 62.2944 164.231 62.2566 164.004L59.6862 150.79C59.6484 150.525 59.7996 150.298 60.0642 150.222C60.3288 150.184 60.5556 150.336 60.6312 150.601L63.2016 163.814C63.2394 164.079 63.0882 164.307 62.8236 164.382C62.748 164.382 62.7102 164.382 62.7102 164.382Z" fill="#C5E0D6"/>
<path d="M72.7269 96.0812C64.6378 115.466 67.1326 143.975 81.1941 170.856C95.2557 197.738 117.217 216.062 137.743 220.454C145.832 201.069 143.337 172.56 129.276 145.679C115.214 118.76 93.2523 100.473 72.7269 96.0812Z" fill="#C5E0D6"/>
<path d="M137.743 220.909C137.554 220.909 137.402 220.833 137.327 220.644L77.7542 106.682C77.6408 106.455 77.7164 106.152 77.9432 106.039C78.17 105.925 78.4724 106.001 78.5858 106.228L138.158 220.227C138.272 220.454 138.196 220.757 137.969 220.871C137.894 220.909 137.818 220.909 137.743 220.909Z" fill="white"/>
<path d="M92.156 133.677C92.1182 133.677 92.1182 133.677 92.0804 133.677L75.0705 130.762C74.8059 130.724 74.6547 130.459 74.6925 130.232C74.7303 129.967 74.9949 129.815 75.2217 129.853L92.2316 132.768C92.4962 132.806 92.6474 133.071 92.6096 133.299C92.5718 133.526 92.3828 133.677 92.156 133.677Z" fill="white"/>
<path d="M112.379 172.371H112.341L83.6132 169.304C83.3486 169.266 83.1596 169.039 83.1974 168.774C83.2352 168.509 83.462 168.32 83.7266 168.358L112.455 171.424C112.719 171.462 112.908 171.689 112.87 171.954C112.795 172.182 112.606 172.371 112.379 172.371Z" fill="white"/>
<path d="M101.833 152.229C101.795 152.229 101.795 152.229 101.757 152.229L77.8676 149.162C77.603 149.124 77.414 148.897 77.4518 148.632C77.4896 148.367 77.7164 148.178 77.981 148.216L101.871 151.282C102.135 151.32 102.324 151.547 102.286 151.812C102.286 152.04 102.06 152.229 101.833 152.229Z" fill="white"/>
<path d="M90.4552 130.572C90.3796 130.572 90.304 130.572 90.2662 130.535C90.0394 130.421 89.926 130.156 90.0394 129.891L97.3347 114.217C97.4481 113.989 97.7127 113.876 97.9773 113.989C98.2041 114.103 98.3175 114.368 98.2041 114.633L90.9088 130.307C90.8332 130.459 90.6442 130.572 90.4552 130.572Z" fill="white"/>
<path d="M110.678 169.266C110.602 169.266 110.527 169.266 110.451 169.191C110.224 169.077 110.149 168.774 110.262 168.547L124.097 143.142C124.21 142.915 124.513 142.839 124.739 142.953C124.966 143.067 125.042 143.37 124.928 143.597L111.094 169.001C111.018 169.191 110.867 169.266 110.678 169.266Z" fill="white"/>
<path d="M100.17 149.124C100.094 149.124 100.019 149.124 99.9429 149.087C99.7161 148.973 99.6027 148.67 99.7539 148.443L110.867 127.051C110.98 126.824 111.283 126.711 111.51 126.862C111.736 126.976 111.85 127.279 111.699 127.506L100.586 148.897C100.51 149.049 100.321 149.124 100.17 149.124Z" fill="white"/>
<path d="M201.927 149.768H107.767V240.596H201.927V149.768Z" fill="white"/>
<path d="M243.431 96.0055H149.272L107.767 149.768H201.965L243.431 96.0055Z" fill="#3B4F66"/>
<path d="M243.431 96.0055H241.201H220.449H218.219H197.466H195.236H174.484H172.254H151.502H149.272L107.805 149.768H110.035H130.787H133.018H153.77H156H176.752H178.982H199.734H201.965L203.666 147.534L243.431 96.0055ZM239.462 98.2393L221.318 121.789H200.566L218.71 98.2393H239.462ZM216.48 98.2393L198.336 121.789H177.584L195.728 98.2393H216.48ZM193.497 98.2393L175.354 121.789H154.601L172.745 98.2393H193.497ZM170.515 98.2393L152.371 121.789H131.619L149.763 98.2393H170.515ZM111.736 147.572L129.88 124.023H150.632L132.488 147.572H111.736ZM134.719 147.572L152.863 124.023H173.615L155.471 147.572H134.719ZM157.701 147.572L175.845 124.023H196.597L178.453 147.572H157.701ZM180.683 147.572L198.827 124.023H219.579L201.435 147.572H180.683Z" fill="#8FA7B8"/>
<path d="M158.914 240.622H162.618V200.073H158.914V240.622Z" fill="#C6C6C6"/>
<path d="M177.848 200.085H162.615V240.634H177.848V200.085Z" fill="#5F8199"/>
<path d="M142.76 240.622H154.062V193.106H142.76V240.622Z" fill="#F6CD7D"/>
<path d="M171.415 193.108H182.717V185.688H171.415V193.108Z" fill="#F6CD7D"/>
<path d="M142.732 185.698H135.323V240.634H142.732V193.119H171.385V185.698H142.732Z" fill="#DEA364"/>
<path d="M243.431 96.0055L201.965 149.768V240.634H209.373V152.305L243.431 108.159V96.0055Z" fill="#F6CD7D"/>
<path d="M243.431 96.0055L284.898 149.768V240.634H277.489V152.305L243.431 108.159V96.0055Z" fill="#F6CD7D"/>
<path d="M243.431 108.159L236.249 117.473L263.087 152.305V240.634H277.489V152.305L243.431 108.159Z" fill="#DEA364"/>
<path d="M263.087 152.305L236.249 117.473L209.373 152.305V240.634H263.087V152.305Z" fill="#3B4F66"/>
<path d="M252.314 170.061V240.634H209.373V156.091L225.438 135.192L252.314 170.061Z" fill="#5F8199"/>
<path d="M158.914 176.96H162.618V158.56H158.914V176.96Z" fill="#C6C6C6"/>
<path d="M177.848 158.514H162.615V176.914H177.848V158.514Z" fill="#5F8199"/>
<path d="M177.848 158.514H162.615V163.398H177.848V158.514Z" fill="#3B4F66"/>
<path d="M177.848 200.085H162.615V204.969H177.848V200.085Z" fill="#3B4F66"/>
<path d="M217.689 241.088C217.425 241.088 217.236 240.861 217.236 240.634V141.514C217.236 141.249 217.463 141.06 217.689 141.06C217.954 141.06 218.143 141.287 218.143 141.514V240.596C218.181 240.899 217.954 241.088 217.689 241.088Z" fill="white"/>
<path d="M240.407 241.088C240.142 241.088 239.953 240.861 239.953 240.634V122.887C239.953 122.622 240.18 122.432 240.407 122.432C240.672 122.432 240.861 122.66 240.861 122.887V240.596C240.861 240.899 240.672 241.088 240.407 241.088Z" fill="white"/>
<path d="M263.087 241.088C262.822 241.088 262.633 240.861 262.633 240.634V152.305C262.633 152.04 262.86 151.85 263.087 151.85C263.314 151.85 263.541 152.078 263.541 152.305V240.596C263.578 240.899 263.352 241.088 263.087 241.088Z" fill="white"/>
<path d="M263.087 200.539H209.374C209.109 200.539 208.92 200.312 208.92 200.085C208.92 199.82 209.147 199.631 209.374 199.631H263.125C263.389 199.631 263.578 199.858 263.578 200.085C263.578 200.35 263.352 200.539 263.087 200.539Z" fill="white"/>
<path d="M263.087 178.58H209.374C209.109 178.58 208.92 178.353 208.92 178.126C208.92 177.861 209.147 177.671 209.374 177.671H263.125C263.389 177.671 263.578 177.899 263.578 178.126C263.578 178.391 263.352 178.58 263.087 178.58Z" fill="white"/>
<path d="M141.371 117.245H143.224C149.234 117.245 154.904 114.444 158.57 109.711L162.199 104.978C163.522 103.275 162.313 100.738 160.12 100.738H153.77C151.955 100.738 150.254 101.571 149.158 103.01L140.124 114.709C139.33 115.769 140.048 117.245 141.371 117.245Z" fill="#5F8199"/>
<path d="M169.532 112.361H171.536C175.883 112.361 180.003 110.355 182.649 106.909L184.69 104.335C185.824 102.858 184.804 100.738 182.951 100.738H176.79C174.976 100.738 173.275 101.571 172.141 103.01L167.718 108.651C166.508 110.165 167.605 112.361 169.532 112.361Z" fill="#5F8199"/>
<path d="M193.989 108.992H194.707C198.449 108.992 202.003 107.326 204.384 104.411L204.686 104.07C205.782 102.745 204.838 100.776 203.137 100.776H199.772C197.92 100.776 196.181 101.609 195.01 103.01L192.553 106.001C191.57 107.174 192.439 108.992 193.989 108.992Z" fill="#5F8199"/>
<path d="M127.575 135.192H128.179C132.866 135.192 137.251 133.033 140.124 129.323L140.351 128.982C141.107 127.96 140.426 126.521 139.141 126.521H133.396C131.922 126.521 130.485 127.203 129.578 128.414L126.327 132.655C125.533 133.677 126.252 135.192 127.575 135.192Z" fill="#5F8199"/>
<path d="M46.4181 207.847H37.9888V240.634H46.4181V207.847Z" fill="#8FA7B8"/>
<path d="M74.9193 185.698H35.2294L1.05835 229.995L2.30575 233.668H41.9956L76.1667 189.37L74.9193 185.698Z" fill="#6C8CA6"/>
<path d="M74.9193 185.698H35.2294L1.05835 229.995H40.7482L74.9193 185.698Z" fill="#3B4F66"/>
<path d="M73.5207 187.515L74.3901 186.379L74.9193 185.66H35.2294L33.8308 187.515L18.8621 206.9L17.6903 208.414L1.05835 229.957H40.7482L57.1155 208.717L57.7959 207.847L73.5207 187.515ZM35.6452 187.515H52.7307L37.762 206.9H20.6765L35.6452 187.515ZM36.3634 208.755L21.3947 228.14H4.30913L19.2779 208.755H36.3634ZM40.3324 228.14H23.2469L38.2156 208.755H55.3011L40.3324 228.14ZM56.7375 206.9H39.652L54.6207 187.515H71.7063L56.7375 206.9Z" fill="#8FA7B8"/>
<path d="M32.2055 200.539H33.9443C37.7243 200.539 41.2774 198.798 43.621 195.807L45.3976 193.573C46.3804 192.286 45.4732 190.431 43.8856 190.431H38.5181C36.9305 190.431 35.4563 191.15 34.4735 192.399L30.6557 197.283C29.5973 198.609 30.5423 200.539 32.2055 200.539Z" fill="#5F8199"/>
<path d="M52.2393 197.586H52.8441C56.0949 197.586 59.1945 196.11 61.2735 193.611L61.5381 193.308C62.4831 192.172 61.6515 190.431 60.1773 190.431H57.2667C55.6791 190.431 54.1671 191.15 53.1465 192.361L51.0297 194.936C50.1603 196.034 50.8785 197.586 52.2393 197.586Z" fill="#5F8199"/>
<path d="M94.8776 207.847H86.4482V240.634H94.8776V207.847Z" fill="#8FA7B8"/>
<path d="M123.379 185.698H83.6889L49.5178 229.995L50.7652 233.668H90.4551L124.626 189.37L123.379 185.698Z" fill="#6C8CA6"/>
<path d="M123.379 185.698H83.6889L49.5178 229.995H89.2077L123.379 185.698Z" fill="#3B4F66"/>
<path d="M121.942 187.515L122.812 186.379L123.379 185.66H83.6889L82.2903 187.515L67.3216 206.9L66.1498 208.452L49.5557 229.995H89.2455L105.613 208.755L106.255 207.884L121.942 187.515ZM84.1047 187.515H101.19L86.2215 206.9H69.136L84.1047 187.515ZM84.8229 208.755L69.8542 228.14H52.7687L67.7374 208.755H84.8229ZM88.7919 228.14H71.7064L86.6751 208.755H103.761L88.7919 228.14ZM105.159 206.9H88.0737L103.042 187.515H120.128L105.159 206.9Z" fill="#8FA7B8"/>
<path d="M255.548 54.0676C259.002 39.4159 249.943 24.7337 235.315 21.274C220.687 17.8143 206.029 26.8872 202.575 41.539C199.12 56.1907 208.179 70.8729 222.807 74.3325C237.435 77.7922 252.093 68.7193 255.548 54.0676Z" fill="#88BFB1"/>
<path d="M229.218 44.666L236.249 28.4615H226.988L220.335 48.6414H230.125L222.603 67.0797L242.335 44.666H229.218Z" fill="white"/>
<path d="M315.024 181.344L328.443 182.442C329.539 182.518 330.522 181.647 330.522 180.549V178.466C330.522 177.823 330.182 177.217 329.652 176.876L324.549 173.545C324.247 173.355 323.869 173.242 323.491 173.242H315.175C314.117 173.242 313.247 174.112 313.247 175.173V179.527C313.285 180.435 314.041 181.268 315.024 181.344Z" fill="#DEA364"/>
<path d="M313.285 175.097V176.687C313.285 177.671 314.041 178.504 315.062 178.58L328.481 179.678C329.501 179.754 330.371 179.072 330.522 178.088C330.446 177.558 330.144 177.104 329.69 176.801L324.587 173.469C324.285 173.28 323.907 173.166 323.529 173.166H315.213C314.117 173.166 313.285 174.037 313.285 175.097Z" fill="#F6CD7D"/>
<path d="M408.352 151.812C408.541 149.427 423.585 148.708 441.956 150.222C460.327 151.737 475.295 154.652 474.842 157.302C474.35 160.142 472.158 163.057 458.815 162.111C440.444 160.785 408.125 154.235 408.352 151.812Z" fill="#DEA364"/>
<path d="M310.034 205.726C304.251 205.726 299.602 213.526 299.602 223.18C299.602 232.797 304.289 240.634 310.034 240.634H321.488V205.726H310.034Z" fill="#2D374D"/>
<path d="M462.292 205.726C456.509 205.726 451.859 213.526 451.859 223.18C451.859 232.797 456.547 240.634 462.292 240.634H473.745V205.726H462.292Z" fill="#2D374D"/>
<path d="M383.215 205.726C377.432 205.726 372.782 213.526 372.782 223.18C372.782 232.797 377.469 240.634 383.215 240.634H394.668V205.726H383.215Z" fill="#2D374D"/>
<path d="M321.526 240.634C327.287 240.634 331.958 232.82 331.958 223.18C331.958 213.541 327.287 205.726 321.526 205.726C315.764 205.726 311.093 213.541 311.093 223.18C311.093 232.82 315.764 240.634 321.526 240.634Z" fill="#3B4F66"/>
<path d="M493.288 216.365C493.855 201.978 492.646 194.822 490.567 181.95C490.037 179.981 489.206 177.823 487.618 175.816C482.742 169.645 476.845 163.852 473.368 160.748C467.509 155.485 461.423 152.721 453.296 151.623C433.678 148.935 409.826 148.291 391.304 149.086C375.882 149.73 362.576 150.298 353.958 155.22C346.095 159.725 328.481 174.529 321.904 181.041C316.12 182.29 308.9 185.054 300.32 194.368C294.272 200.956 295.406 213.601 295.406 219.508C295.406 227.875 301.492 230.752 308.749 230.752C337.969 230.752 460.553 230.752 481.91 230.752C490.378 230.752 492.948 225.3 493.288 216.365Z" fill="#F6CD7D"/>
<path d="M358.947 154.235C347.532 159.498 330.068 175.362 325.608 180.814H391.984C397.768 172.712 408.73 160.596 415.95 154.235H358.947Z" fill="#3B4F66"/>
<path d="M411.187 163.587C404.988 170.894 399.469 179.451 397.125 184.259C397.125 184.259 449.062 180.549 464.031 178.959C471.553 178.164 473.065 174.302 471.818 170.44C469.814 164.155 465.392 157.113 460.629 155.75C454.694 154.084 438.289 153.705 429.86 154.387C424.228 154.841 416.63 157.189 411.187 163.587Z" fill="#3B4F66"/>
<path d="M367.112 230.752H300.206C298.43 230.752 297.334 229.579 296.615 227.951C295.519 225.414 293.251 219.886 293.289 217.274C293.327 215.229 294.272 208.263 295.481 208.149C296.502 208.074 307.464 212.352 313.474 212.352C323.605 212.352 341.144 212.352 350.442 212.352C355.886 212.352 372.555 206.559 373.727 208.642C374.559 210.08 370.136 213.753 370.212 217.236C370.25 220.113 370.59 226.701 370.59 226.701C370.93 228.897 369.267 230.752 367.112 230.752Z" fill="#DEA364"/>
<path d="M359.779 227.307H300.773L303.835 219.962C304.402 218.599 305.725 217.728 307.162 217.728H350.669C351.803 217.728 352.862 218.258 353.542 219.129L359.779 227.307Z" fill="#2D374D"/>
<path d="M343.941 198.571H323.075L308.485 196.11L306.746 202.925L320.316 209.285H341.182L358.04 202.925L359.779 196.11L343.941 198.571Z" fill="#DEA364"/>
<path d="M308.485 196.11L306.708 202.925L297.56 198.646C296.993 195.466 298.657 193.157 299.942 191.718C301.038 190.468 306.519 186.872 310.45 185.622C310.564 185.736 303.571 189.484 304.894 191.339L308.485 196.11Z" fill="#6C8CA6"/>
<path d="M407.067 230.752C407.823 228.102 408.238 225.187 408.238 222.044C408.238 210.951 402.871 201.978 396.218 201.978C389.603 201.978 384.198 210.951 384.198 222.044C384.198 225.149 384.614 228.102 385.37 230.752H407.067Z" fill="#2D374D"/>
<path d="M394.668 240.634C400.43 240.634 405.101 232.82 405.101 223.18C405.101 213.541 400.43 205.726 394.668 205.726C388.906 205.726 384.236 213.541 384.236 223.18C384.236 232.82 388.906 240.634 394.668 240.634Z" fill="#3B4F66"/>
<path d="M394.668 234.538C398.405 234.538 401.434 229.453 401.434 223.18C401.434 216.907 398.405 211.822 394.668 211.822C390.931 211.822 387.902 216.907 387.902 223.18C387.902 229.453 390.931 234.538 394.668 234.538Z" fill="white"/>
<path d="M482.666 230.752C483.611 230.752 486.257 230.412 486.408 229.882C487.013 227.459 487.353 224.808 487.353 222.044C487.353 210.951 481.986 201.978 475.333 201.978C468.718 201.978 463.313 210.951 463.313 222.044C463.313 225.149 463.729 228.102 464.485 230.752H482.666Z" fill="#2D374D"/>
<path d="M473.783 240.634C479.545 240.634 484.216 232.82 484.216 223.18C484.216 213.541 479.545 205.726 473.783 205.726C468.021 205.726 463.351 213.541 463.351 223.18C463.351 232.82 468.021 240.634 473.783 240.634Z" fill="#3B4F66"/>
<path d="M473.783 234.538C477.52 234.538 480.549 229.453 480.549 223.18C480.549 216.907 477.52 211.822 473.783 211.822C470.046 211.822 467.017 216.907 467.017 223.18C467.017 229.453 470.046 234.538 473.783 234.538Z" fill="white"/>
<path d="M356.793 156.999C346.625 163.398 335.814 172.068 331.807 176.952C331.807 176.952 374.975 175.324 389.603 169.759C396.785 167.033 396.407 161.164 396.105 156.999H356.793Z" fill="#8FA7B8"/>
<path d="M321.45 189.068C321.223 192.437 322.055 197.208 321.072 197.208C318.691 197.208 308.56 191.869 308.56 190.317C308.56 188.765 319.862 182.139 323.038 182.139C324.323 182.101 321.828 183.578 321.45 189.068Z" fill="#F6CD7D"/>
<path d="M378.83 195.125L358.04 202.962L359.779 196.148L367.037 190.468C369.04 188.878 371.308 187.856 373.5 187.553L386.39 185.698C387.486 185.546 387.902 186.834 387.108 187.856L384.916 190.62C383.215 192.664 381.098 194.254 378.83 195.125Z" fill="#6C8CA6"/>
<path d="M374.634 196.678L358.04 202.925L359.439 197.473L365.222 192.929C366.848 191.68 368.624 190.847 370.401 190.62L380.682 189.143C381.552 189.03 381.892 190.052 381.249 190.847L379.473 193.043C378.15 194.747 376.449 196.034 374.634 196.678Z" fill="white"/>
<path d="M308.107 197.511L306.708 202.963L299.526 199.744C297.787 195.352 301.454 190.733 304.667 189.181C305.083 189.56 303.268 190.317 304.478 192.286L308.107 197.511Z" fill="white"/>
<path d="M367.982 222.574H356.15L359.779 227.307H367.793C369.04 227.307 370.023 226.209 369.872 224.96L369.758 224.165C369.645 223.256 368.889 222.574 367.982 222.574Z" fill="white"/>
<path d="M302.739 222.574L300.773 227.307H296.351C295.822 226.02 295.103 224.316 294.499 222.574H302.739Z" fill="white"/>
<path d="M438.932 188.613L432.015 189.068C431.448 189.105 430.956 188.689 430.918 188.083L430.881 187.477C430.843 186.909 431.259 186.417 431.863 186.379L438.781 185.925C439.348 185.887 439.839 186.304 439.877 186.909L439.915 187.515C439.953 188.083 439.499 188.575 438.932 188.613Z" fill="#DEA364"/>
<path d="M470.041 185.925L463.124 186.607C462.557 186.644 462.028 186.228 461.99 185.66L461.914 185.054C461.876 184.486 462.292 183.956 462.859 183.919L469.777 183.237C470.344 183.199 470.873 183.616 470.911 184.184L470.986 184.789C471.024 185.357 470.608 185.887 470.041 185.925Z" fill="#DEA364"/>
<path d="M492.154 192.096H483.876C483.271 192.096 482.855 191.529 483.044 190.961L485.275 183.729C485.653 182.48 486.749 181.571 488.072 181.458L490.34 181.23C490.415 181.495 490.491 181.723 490.566 181.988C491.171 185.698 491.7 188.992 492.154 192.096Z" fill="#DEA364"/>
<path d="M454.921 156.999C456.736 156.999 458.739 157.757 459.419 159.46C460.402 161.846 461.158 163.739 461.498 166.086C461.801 167.979 460.44 169.266 456.962 169.266C447.739 169.266 437.609 168.926 431.145 167.828C429.104 167.487 425.589 166.351 424.039 164.874C422.829 163.701 422.867 161.126 423.207 159.612C423.547 158.022 424.001 156.999 427.743 156.999C432.657 156.999 452.767 156.999 454.921 156.999Z" fill="#6C8CA6"/>
<path d="M473.783 213.488C473.065 213.488 472.385 213.715 471.742 214.131C473.935 215.532 475.484 219.053 475.484 223.18C475.484 227.307 473.935 230.866 471.742 232.267C472.385 232.683 473.065 232.91 473.783 232.91C476.996 232.91 479.567 228.556 479.567 223.218C479.567 217.804 476.959 213.488 473.783 213.488Z" fill="#8FA7B8"/>
<path d="M394.668 213.488C393.95 213.488 393.27 213.715 392.627 214.131C394.819 215.532 396.369 219.053 396.369 223.18C396.369 227.307 394.819 230.866 392.627 232.267C393.27 232.683 393.95 232.91 394.668 232.91C397.881 232.91 400.452 228.556 400.452 223.218C400.489 217.804 397.881 213.488 394.668 213.488Z" fill="#8FA7B8"/>
<path d="M454.241 222.953H410.166L409.788 183.275H410.544L410.922 222.196H454.279C457.492 222.196 460.175 219.924 460.705 216.782C461.687 210.951 464.296 203.265 471.099 199.972C474.048 198.533 475.824 195.352 475.56 192.021C474.955 185.054 473.367 177.823 470.835 170.554L471.553 170.289C474.086 177.634 475.673 184.941 476.316 191.945C476.656 195.58 474.69 199.063 471.44 200.615C464.938 203.758 462.443 211.178 461.461 216.857C460.856 220.416 457.832 222.953 454.241 222.953Z" fill="#3B4F66"/>
<path d="M441.276 222.612L440.52 222.537C442.561 205.878 443.733 194.747 442.599 180.852L443.355 180.776C444.526 194.785 443.355 205.916 441.276 222.612Z" fill="#3B4F66"/>
<path d="M334.226 208.49C336.752 208.49 338.8 206.439 338.8 203.909C338.8 201.379 336.752 199.328 334.226 199.328C331.7 199.328 329.653 201.379 329.653 203.909C329.653 206.439 331.7 208.49 334.226 208.49Z" fill="#536982"/>
<path d="M331.958 208.452C329.464 208.452 327.422 206.408 327.422 203.909C327.422 201.41 329.464 199.366 331.958 199.366C334.453 199.366 336.494 201.41 336.494 203.909C336.494 206.408 334.453 208.452 331.958 208.452ZM331.958 200.123C329.879 200.123 328.178 201.827 328.178 203.909C328.178 205.991 329.879 207.695 331.958 207.695C334.037 207.695 335.738 205.991 335.738 203.909C335.738 201.827 334.037 200.123 331.958 200.123Z" fill="#3B4F66"/>
<path d="M419.843 181.344L406.424 182.442C405.328 182.518 404.345 181.647 404.345 180.549V178.466C404.345 177.823 404.685 177.217 405.214 176.876L410.317 173.545C410.62 173.355 410.998 173.242 411.376 173.242H419.692C420.75 173.242 421.62 174.112 421.62 175.173V179.527C421.582 180.435 420.826 181.268 419.843 181.344Z" fill="#DEA364"/>
<path d="M421.582 175.097V176.687C421.582 177.671 420.826 178.504 419.805 178.58L406.386 179.678C405.366 179.754 404.496 179.072 404.345 178.088C404.421 177.558 404.723 177.104 405.177 176.801L410.28 173.469C410.582 173.28 410.96 173.166 411.338 173.166H419.654C420.712 173.166 421.582 174.037 421.582 175.097Z" fill="#F6CD7D"/>
<path d="M335.549 203.909C335.549 204.628 334.944 205.234 334.226 205.234H235.002C228.651 205.234 223.51 210.383 223.51 216.744V253.393C223.51 261.193 217.16 267.553 209.373 267.553C201.586 267.553 195.236 261.193 195.236 253.393V236.621C195.236 230.525 190.284 225.565 184.199 225.565H162.653V222.915H184.199C191.758 222.915 197.882 229.086 197.882 236.621V253.393C197.882 259.754 203.023 264.903 209.373 264.903C215.724 264.903 220.864 259.754 220.864 253.393V216.744C220.864 208.944 227.215 202.584 235.002 202.584H334.226C334.982 202.584 335.549 203.19 335.549 203.909Z" fill="#2D374D"/>
<path d="M498.542 241.088H0.453597C0.188998 241.088 0 240.861 0 240.634C0 240.369 0.226798 240.18 0.453597 240.18H498.542C498.807 240.18 498.996 240.407 498.996 240.634C499.034 240.899 498.807 241.088 498.542 241.088Z" fill="#343959"/>
</svg>
