<svg width="125" height="81" viewBox="0 0 125 81" fill="none" xmlns="http://www.w3.org/2000/svg">
<g clip-path="url(#clip0_284_2156)">
<path d="M12.6 8.6C14.4667 8.6 16.1933 8.92 17.78 9.56C19.38 10.1867 20.6733 11.1533 21.66 12.46C22.66 13.7533 23.2 15.4 23.28 17.4H19.4C19.3067 15.52 18.64 14.1533 17.4 13.3C16.16 12.4333 14.56 12 12.6 12C10.64 12 9.07333 12.4 7.9 13.2C6.74 13.9867 6.16 15.1533 6.16 16.7C6.16 17.7133 6.41333 18.5267 6.92 19.14C7.42667 19.7533 8.09333 20.2267 8.92 20.56C9.74667 20.8933 10.64 21.1467 11.6 21.32L15.24 21.96C16.6533 22.2 17.9933 22.6133 19.26 23.2C20.5267 23.7733 21.56 24.6067 22.36 25.7C23.16 26.7933 23.56 28.2467 23.56 30.06C23.56 31.8733 23.0933 33.42 22.16 34.7C21.24 35.9667 19.9867 36.9333 18.4 37.6C16.8133 38.2667 15.0267 38.6 13.04 38.6C11.0533 38.6 9.18667 38.2467 7.44 37.54C5.70667 36.8333 4.28667 35.7467 3.18 34.28C2.08667 32.8 1.50667 30.9067 1.44 28.6H5.32C5.46667 30.9333 6.26 32.62 7.7 33.66C9.14 34.6867 10.92 35.2 13.04 35.2C15.16 35.2 16.8 34.7467 17.96 33.84C19.1333 32.92 19.72 31.6733 19.72 30.1C19.72 29.0467 19.4467 28.2067 18.9 27.58C18.3533 26.94 17.64 26.4533 16.76 26.12C15.88 25.7733 14.9333 25.5133 13.92 25.34L10.28 24.7C9 24.4733 7.74667 24.08 6.52 23.52C5.30667 22.9467 4.3 22.12 3.5 21.04C2.71333 19.96 2.32 18.5267 2.32 16.74C2.32 14.9533 2.78667 13.46 3.72 12.26C4.65333 11.0467 5.9 10.1333 7.46 9.52C9.02 8.90667 10.7333 8.6 12.6 8.6ZM28.3563 38V9.2H39.5963C42.3029 9.2 44.4763 9.92 46.1163 11.36C47.7696 12.7867 48.5963 14.8 48.5963 17.4C48.5963 20 47.7696 22.02 46.1163 23.46C44.4763 24.8867 42.3029 25.6 39.5963 25.6H32.1963V38H28.3563ZM32.1963 22.16H39.1963C40.9429 22.16 42.3029 21.78 43.2763 21.02C44.2629 20.26 44.7563 19.0533 44.7563 17.4C44.7563 15.7333 44.2629 14.5267 43.2763 13.78C42.3029 13.02 40.9429 12.64 39.1963 12.64H32.1963V22.16ZM48.1122 38V37.2L56.6922 9.2H62.6122L71.1922 37.2V38H67.3722L64.7122 29.12H54.5922L51.9322 38H48.1122ZM55.6322 25.68H63.6722L59.9322 13.16C59.8922 13.0533 59.7989 13 59.6522 13C59.5055 13 59.4122 13.0533 59.3722 13.16L55.6322 25.68ZM75.5047 38V9.2H86.9447C88.7447 9.2 90.338 9.51333 91.7247 10.14C93.1114 10.7533 94.1914 11.6867 94.9647 12.94C95.7514 14.18 96.1447 15.7333 96.1447 17.6C96.1447 19.9333 95.538 21.78 94.3247 23.14C93.1247 24.5 91.5247 25.3733 89.5247 25.76L94.7847 37.2V38H90.8847L85.6247 26H79.3447V38H75.5047ZM79.3447 22.56H86.5447C88.398 22.56 89.818 22.1733 90.8047 21.4C91.8047 20.6267 92.3047 19.36 92.3047 17.6C92.3047 15.84 91.8047 14.5733 90.8047 13.8C89.818 13.0267 88.398 12.64 86.5447 12.64H79.3447V22.56ZM100.817 38V9.2H104.657V22.8L119.037 9.2H123.817V10L111.277 21.66L123.697 37.2V38H119.417L108.557 24.2L104.657 27.82V38H100.817Z" fill="white"/>
</g>
<path d="M1.1136 74V64.976H4.6848C5.6576 64.976 6.4 65.2107 6.912 65.68C7.43253 66.1493 7.6928 66.8192 7.6928 67.6896C7.6928 68.5515 7.43253 69.2213 6.912 69.6992C6.4 70.1685 5.6576 70.4032 4.6848 70.4032H2.1632V74H1.1136ZM2.1632 69.52H4.5568C5.95627 69.52 6.656 68.9099 6.656 67.6896C6.656 66.4608 5.95627 65.8464 4.5568 65.8464H2.1632V69.52ZM11.3709 74.1152C10.765 74.1152 10.2402 73.9829 9.7965 73.7184C9.35277 73.4539 9.00717 73.0827 8.7597 72.6048C8.52077 72.1184 8.4013 71.5467 8.4013 70.8896C8.4013 70.2325 8.52077 69.6651 8.7597 69.1872C9.00717 68.7008 9.35277 68.3253 9.7965 68.0608C10.2402 67.7963 10.765 67.664 11.3709 67.664C11.9682 67.664 12.4888 67.7963 12.9325 68.0608C13.3848 68.3253 13.7304 68.7008 13.9693 69.1872C14.2168 69.6651 14.3405 70.2325 14.3405 70.8896C14.3405 71.5467 14.2168 72.1184 13.9693 72.6048C13.7304 73.0827 13.3848 73.4539 12.9325 73.7184C12.4888 73.9829 11.9682 74.1152 11.3709 74.1152ZM11.3709 73.2832C11.9512 73.2832 12.4162 73.0784 12.7661 72.6688C13.116 72.2507 13.2909 71.6576 13.2909 70.8896C13.2909 70.1131 13.116 69.52 12.7661 69.1104C12.4162 68.7008 11.9512 68.496 11.3709 68.496C10.7821 68.496 10.3128 68.7008 9.9629 69.1104C9.62157 69.52 9.4509 70.1131 9.4509 70.8896C9.4509 71.6576 9.62157 72.2507 9.9629 72.6688C10.3128 73.0784 10.7821 73.2832 11.3709 73.2832ZM17.4615 74L15.1447 67.7792H16.2327L17.9863 72.784L19.8039 67.7792H20.6871L22.4791 72.7968L24.2583 67.7792H25.2951L22.9655 74H21.9799L20.2263 69.1744L18.4599 74H17.4615ZM29.2885 74.1152C28.3072 74.1152 27.5306 73.8293 26.9589 73.2576C26.3872 72.6773 26.1013 71.8923 26.1013 70.9024C26.1013 70.2624 26.2293 69.6992 26.4853 69.2128C26.7413 68.7179 27.0912 68.3381 27.5349 68.0736C27.9872 67.8005 28.5077 67.664 29.0965 67.664C29.9413 67.664 30.6026 67.9371 31.0805 68.4832C31.5584 69.0208 31.7973 69.7632 31.7973 70.7104V71.1072H27.1125C27.1466 71.8155 27.3514 72.3573 27.7269 72.7328C28.1024 73.0997 28.6229 73.2832 29.2885 73.2832C29.664 73.2832 30.0224 73.2277 30.3637 73.1168C30.705 72.9973 31.0293 72.8053 31.3365 72.5408L31.6949 73.2704C31.4133 73.5349 31.0549 73.744 30.6197 73.8976C30.1845 74.0427 29.7408 74.1152 29.2885 74.1152ZM29.1221 68.432C28.5333 68.432 28.0682 68.6155 27.7269 68.9824C27.3856 69.3493 27.185 69.8315 27.1253 70.4288H30.9013C30.8757 69.7973 30.7093 69.3067 30.4021 68.9568C30.1034 68.6069 29.6768 68.432 29.1221 68.432ZM33.2978 74V67.7792H34.309V68.8928C34.6418 68.1419 35.3245 67.728 36.357 67.6512L36.7282 67.6128L36.805 68.5088L36.1522 68.5856C35.5634 68.6368 35.1154 68.8245 34.8082 69.1488C34.501 69.4645 34.3474 69.8997 34.3474 70.4544V74H33.2978ZM40.6135 74.1152C39.6322 74.1152 38.8556 73.8293 38.2839 73.2576C37.7122 72.6773 37.4263 71.8923 37.4263 70.9024C37.4263 70.2624 37.5543 69.6992 37.8103 69.2128C38.0663 68.7179 38.4162 68.3381 38.8599 68.0736C39.3122 67.8005 39.8327 67.664 40.4215 67.664C41.2663 67.664 41.9276 67.9371 42.4055 68.4832C42.8834 69.0208 43.1223 69.7632 43.1223 70.7104V71.1072H38.4375C38.4716 71.8155 38.6764 72.3573 39.0519 72.7328C39.4274 73.0997 39.9479 73.2832 40.6135 73.2832C40.989 73.2832 41.3474 73.2277 41.6887 73.1168C42.03 72.9973 42.3543 72.8053 42.6615 72.5408L43.0199 73.2704C42.7383 73.5349 42.3799 73.744 41.9447 73.8976C41.5095 74.0427 41.0658 74.1152 40.6135 74.1152ZM40.4471 68.432C39.8583 68.432 39.3932 68.6155 39.0519 68.9824C38.7106 69.3493 38.51 69.8315 38.4503 70.4288H42.2263C42.2007 69.7973 42.0343 69.3067 41.7271 68.9568C41.4284 68.6069 41.0018 68.432 40.4471 68.432ZM46.9908 74.1152C46.4361 74.1152 45.9497 73.9829 45.5316 73.7184C45.122 73.4539 44.802 73.0827 44.5716 72.6048C44.3497 72.1184 44.2388 71.5467 44.2388 70.8896C44.2388 70.224 44.3497 69.6523 44.5716 69.1744C44.802 68.688 45.122 68.3168 45.5316 68.0608C45.9497 67.7963 46.4361 67.664 46.9908 67.664C47.4772 67.664 47.9039 67.7707 48.2708 67.984C48.6463 68.1973 48.9236 68.4917 49.1028 68.8672V64.976H50.1396V74H49.1284V72.8608C48.9492 73.2533 48.6719 73.5605 48.2964 73.7824C47.9209 74.0043 47.4857 74.1152 46.9908 74.1152ZM47.2084 73.2832C47.7887 73.2832 48.2537 73.0784 48.6036 72.6688C48.9535 72.2507 49.1284 71.6576 49.1284 70.8896C49.1284 70.1131 48.9535 69.52 48.6036 69.1104C48.2537 68.7008 47.7887 68.496 47.2084 68.496C46.6196 68.496 46.1503 68.7008 45.8004 69.1104C45.4591 69.52 45.2884 70.1131 45.2884 70.8896C45.2884 71.6576 45.4591 72.2507 45.8004 72.6688C46.1503 73.0784 46.6196 73.2832 47.2084 73.2832ZM58.5216 74.1152C58.0267 74.1152 57.5915 74.0043 57.216 73.7824C56.8491 73.5605 56.5717 73.2576 56.384 72.8736V74H55.3728V64.976H56.4096V68.8544C56.5888 68.4875 56.8661 68.1973 57.2416 67.984C57.6171 67.7707 58.0437 67.664 58.5216 67.664C59.0763 67.664 59.5584 67.7963 59.968 68.0608C60.3861 68.3168 60.7061 68.688 60.928 69.1744C61.1584 69.6523 61.2736 70.224 61.2736 70.8896C61.2736 71.5467 61.1584 72.1184 60.928 72.6048C60.7061 73.0827 60.3861 73.4539 59.968 73.7184C59.5584 73.9829 59.0763 74.1152 58.5216 74.1152ZM58.304 73.2832C58.8843 73.2832 59.3493 73.0784 59.6992 72.6688C60.0491 72.2507 60.224 71.6576 60.224 70.8896C60.224 70.1131 60.0491 69.52 59.6992 69.1104C59.3493 68.7008 58.8843 68.496 58.304 68.496C57.7237 68.496 57.2587 68.7008 56.9088 69.1104C56.5589 69.52 56.384 70.1131 56.384 70.8896C56.384 71.6576 56.5589 72.2507 56.9088 72.6688C57.2587 73.0784 57.7237 73.2832 58.304 73.2832ZM63.4646 76.304L64.527 73.8976L61.903 67.7792H63.0294L65.0902 72.8224L67.1638 67.7792H68.2518L64.5526 76.304H63.4646Z" fill="white"/>
<mask id="mask0_284_2156" style="mask-type:alpha" maskUnits="userSpaceOnUse" x="75" y="66" width="9" height="10">
<path d="M75 66.6631H83.9696V75.8185H75V66.6631Z" fill="white"/>
</mask>
<g mask="url(#mask0_284_2156)">
<path fill-rule="evenodd" clip-rule="evenodd" d="M78.8607 73.6212C79.1903 74.6466 79.1537 74.7382 79.1537 75.2692H79.8129C79.8129 74.7382 79.7763 74.6283 80.1058 73.6212L82.3214 66.6631H83.9694L80.9664 75.8185H78.0001L74.9971 66.6631H76.645L78.8607 73.6212Z" fill="white"/>
</g>
<path fill-rule="evenodd" clip-rule="evenodd" d="M106.245 66.6631V71.8267C106.245 73.9325 107.38 74.8114 108.992 74.8114C110.878 74.8114 111.738 73.6945 111.738 71.5887V66.6631H113.203V75.8185H111.738V74.4636H111.079C110.603 75.7636 109.413 76.0749 108.479 76.0749C105.989 76.0749 104.78 74.4636 104.78 71.8267V66.6631H106.245Z" fill="white"/>
<mask id="mask1_284_2156" style="mask-type:alpha" maskUnits="userSpaceOnUse" x="85" y="63" width="40" height="14">
<path d="M85.1279 63.0254H124.372V76.9754H85.1279V63.0254Z" fill="white"/>
</mask>
<g mask="url(#mask1_284_2156)">
<path fill-rule="evenodd" clip-rule="evenodd" d="M119.959 67.6524C118.385 67.6524 117.323 68.6778 117.103 70.3624H122.852C122.633 68.6778 121.571 67.6524 119.959 67.6524ZM119.959 66.4072C122.926 66.4072 124.372 68.4764 124.372 71.0948V71.4977H117.048C117.103 73.5302 118.201 74.8485 119.959 74.8485C121.314 74.8485 122.193 74.0978 122.651 72.8527H124.189C123.677 74.7387 122.34 76.0754 119.959 76.0754C117.048 76.0754 115.583 74.0063 115.583 71.3695V71.0948C115.583 68.4764 117.048 66.4072 119.959 66.4072Z" fill="white"/>
<path fill-rule="evenodd" clip-rule="evenodd" d="M101.046 63.0254H99.5811V74.5189C99.5811 75.233 100.167 75.819 100.881 75.819H102.524V74.3907H101.046V63.0254Z" fill="white"/>
<path fill-rule="evenodd" clip-rule="evenodd" d="M89.5529 75.6297H92.758L95.2132 73.5694L95.7697 70.4133L94.1672 67.6375L91.1555 66.5414L88.1437 67.6375L86.5412 70.4133L87.0977 73.5694L89.5529 75.6297ZM93.2487 76.9782H89.0621L85.8549 74.2871L85.1279 70.164L87.2212 66.5384L91.1555 65.1064L95.0896 66.5384L97.1829 70.164L96.4559 74.2871L93.2487 76.9782Z" fill="white"/>
</g>
<defs>
<clipPath id="clip0_284_2156">
<rect width="125" height="51" fill="white"/>
</clipPath>
</defs>
</svg>
