<svg width="125" height="98" viewBox="0 0 125 98" fill="none" xmlns="http://www.w3.org/2000/svg">
<g clip-path="url(#clip0_153_4857)">
<path d="M12.88 40.4C11.04 40.4 9.34667 40.12 7.8 39.56C6.25333 38.9733 5.02667 38.1867 4.12 37.2C3.21333 36.2133 2.76 35.1333 2.76 33.96C2.76 33.4267 2.94667 33 3.32 32.68C3.72 32.3333 4.24 32.1467 4.88 32.12C5.30667 34.0133 6.21333 35.4533 7.6 36.44C8.98667 37.4267 10.7733 37.92 12.96 37.92C15.2 37.92 17 37.4 18.36 36.36C19.7467 35.32 20.44 33.96 20.44 32.28C20.44 31.2933 20.1867 30.4533 19.68 29.76C19.2 29.0667 18.4 28.4533 17.28 27.92C16.16 27.36 14.6133 26.8267 12.64 26.32C10.3467 25.7067 8.54667 25.0667 7.24 24.4C5.93333 23.7067 4.98667 22.9333 4.4 22.08C3.84 21.2 3.56 20.12 3.56 18.84C3.56 16.6 4.38667 14.84 6.04 13.56C7.69333 12.2533 9.97333 11.6 12.88 11.6C15.4133 11.6 17.52 12.2 19.2 13.4C20.9067 14.5733 22.0533 16.24 22.64 18.4C22.2933 18.7467 21.76 18.92 21.04 18.92C20.2933 18.92 19.7467 18.56 19.4 17.84C18.8133 16.6667 17.92 15.7333 16.72 15.04C15.5467 14.3467 14.2667 14 12.88 14C10.7733 14 9.17333 14.4133 8.08 15.24C6.98667 16.0667 6.44 17.2667 6.44 18.84C6.44 19.64 6.64 20.32 7.04 20.88C7.44 21.4133 8.10667 21.9067 9.04 22.36C9.97333 22.8133 11.2933 23.28 13 23.76C15.8533 24.56 18 25.32 19.44 26.04C20.9067 26.76 21.9333 27.5733 22.52 28.48C23.1067 29.3867 23.4 30.5733 23.4 32.04C23.4 33.72 22.9733 35.2 22.12 36.48C21.2667 37.7333 20.04 38.7067 18.44 39.4C16.8667 40.0667 15.0133 40.4 12.88 40.4ZM37.4241 12C41.0774 12 43.8374 12.76 45.7041 14.28C47.5974 15.7733 48.5441 17.9867 48.5441 20.92C48.5441 23.9067 47.5974 26.16 45.7041 27.68C43.8374 29.2 41.0774 29.96 37.4241 29.96H31.9841V40H29.1041V12H37.4241ZM37.4241 27.48C40.2774 27.48 42.3574 26.96 43.6641 25.92C44.9974 24.8533 45.6641 23.1867 45.6641 20.92C45.6641 18.68 44.9974 17.0533 43.6641 16.04C42.3574 15 40.2774 14.48 37.4241 14.48H31.9841V27.48H37.4241ZM71.5134 40C70.7934 36.6933 70.1134 33.9867 69.4734 31.88H55.8734C55.2334 33.9867 54.5534 36.6933 53.8334 40H50.8734C52.2601 34.2933 53.7668 29.2267 55.3934 24.8C57.0201 20.3467 58.9534 16.08 61.1934 12H64.1934C66.4068 16.0533 68.3268 20.3067 69.9534 24.76C71.5801 29.1867 73.0868 34.2667 74.4734 40H71.5134ZM68.7934 29.48C67.1668 24.3067 65.1268 19.4533 62.6734 14.92C60.2201 19.4533 58.1801 24.3067 56.5534 29.48H68.7934ZM98.4781 39.88C97.9448 40.1733 97.3715 40.32 96.7581 40.32C96.2781 40.32 95.8781 40.2267 95.5581 40.04C95.2648 39.8533 94.9981 39.5467 94.7581 39.12L90.1981 31.28C89.5581 30.16 88.7715 29.3733 87.8381 28.92C86.9315 28.44 85.6915 28.2 84.1181 28.2H81.3981V40H78.5181V12H87.5981C90.8248 12 93.3581 12.72 95.1981 14.16C97.0381 15.5733 97.9581 17.5467 97.9581 20.08C97.9581 22.08 97.2915 23.8133 95.9581 25.28C94.6248 26.72 92.8915 27.6133 90.7581 27.96C91.5315 28.6 92.2248 29.4133 92.8381 30.4L98.4781 39.88ZM87.3981 25.72C89.7981 25.72 91.6515 25.2267 92.9581 24.24C94.2915 23.2533 94.9581 21.8667 94.9581 20.08C94.9581 18.24 94.3315 16.8533 93.0781 15.92C91.8515 14.96 90.0248 14.48 87.5981 14.48H81.3981V25.72H87.3981ZM123.634 39.88C123.101 40.1733 122.528 40.32 121.914 40.32C121.434 40.32 121.048 40.2267 120.754 40.04C120.488 39.88 120.208 39.5733 119.914 39.12L113.834 29.28C113.221 28.2933 112.568 27.64 111.874 27.32C111.208 26.9733 110.141 26.8 108.674 26.8H107.114V40H104.234V12H107.114V24.32H109.474C109.954 24.32 110.314 24.3333 110.554 24.36L119.994 12H123.314L113.114 25.16C114.234 25.7733 115.301 26.8667 116.314 28.44L123.634 39.88Z" fill="white"/>
</g>
<path d="M1.1136 91V81.976H4.6848C5.6576 81.976 6.4 82.2107 6.912 82.68C7.43253 83.1493 7.6928 83.8192 7.6928 84.6896C7.6928 85.5515 7.43253 86.2213 6.912 86.6992C6.4 87.1685 5.6576 87.4032 4.6848 87.4032H2.1632V91H1.1136ZM2.1632 86.52H4.5568C5.95627 86.52 6.656 85.9099 6.656 84.6896C6.656 83.4608 5.95627 82.8464 4.5568 82.8464H2.1632V86.52ZM11.3709 91.1152C10.765 91.1152 10.2402 90.9829 9.7965 90.7184C9.35277 90.4539 9.00717 90.0827 8.7597 89.6048C8.52077 89.1184 8.4013 88.5467 8.4013 87.8896C8.4013 87.2325 8.52077 86.6651 8.7597 86.1872C9.00717 85.7008 9.35277 85.3253 9.7965 85.0608C10.2402 84.7963 10.765 84.664 11.3709 84.664C11.9682 84.664 12.4888 84.7963 12.9325 85.0608C13.3848 85.3253 13.7304 85.7008 13.9693 86.1872C14.2168 86.6651 14.3405 87.2325 14.3405 87.8896C14.3405 88.5467 14.2168 89.1184 13.9693 89.6048C13.7304 90.0827 13.3848 90.4539 12.9325 90.7184C12.4888 90.9829 11.9682 91.1152 11.3709 91.1152ZM11.3709 90.2832C11.9512 90.2832 12.4162 90.0784 12.7661 89.6688C13.116 89.2507 13.2909 88.6576 13.2909 87.8896C13.2909 87.1131 13.116 86.52 12.7661 86.1104C12.4162 85.7008 11.9512 85.496 11.3709 85.496C10.7821 85.496 10.3128 85.7008 9.9629 86.1104C9.62157 86.52 9.4509 87.1131 9.4509 87.8896C9.4509 88.6576 9.62157 89.2507 9.9629 89.6688C10.3128 90.0784 10.7821 90.2832 11.3709 90.2832ZM17.4615 91L15.1447 84.7792H16.2327L17.9863 89.784L19.8039 84.7792H20.6871L22.4791 89.7968L24.2583 84.7792H25.2951L22.9655 91H21.9799L20.2263 86.1744L18.4599 91H17.4615ZM29.2885 91.1152C28.3072 91.1152 27.5306 90.8293 26.9589 90.2576C26.3872 89.6773 26.1013 88.8923 26.1013 87.9024C26.1013 87.2624 26.2293 86.6992 26.4853 86.2128C26.7413 85.7179 27.0912 85.3381 27.5349 85.0736C27.9872 84.8005 28.5077 84.664 29.0965 84.664C29.9413 84.664 30.6026 84.9371 31.0805 85.4832C31.5584 86.0208 31.7973 86.7632 31.7973 87.7104V88.1072H27.1125C27.1466 88.8155 27.3514 89.3573 27.7269 89.7328C28.1024 90.0997 28.6229 90.2832 29.2885 90.2832C29.664 90.2832 30.0224 90.2277 30.3637 90.1168C30.705 89.9973 31.0293 89.8053 31.3365 89.5408L31.6949 90.2704C31.4133 90.5349 31.0549 90.744 30.6197 90.8976C30.1845 91.0427 29.7408 91.1152 29.2885 91.1152ZM29.1221 85.432C28.5333 85.432 28.0682 85.6155 27.7269 85.9824C27.3856 86.3493 27.185 86.8315 27.1253 87.4288H30.9013C30.8757 86.7973 30.7093 86.3067 30.4021 85.9568C30.1034 85.6069 29.6768 85.432 29.1221 85.432ZM33.2978 91V84.7792H34.309V85.8928C34.6418 85.1419 35.3245 84.728 36.357 84.6512L36.7282 84.6128L36.805 85.5088L36.1522 85.5856C35.5634 85.6368 35.1154 85.8245 34.8082 86.1488C34.501 86.4645 34.3474 86.8997 34.3474 87.4544V91H33.2978ZM40.6135 91.1152C39.6322 91.1152 38.8556 90.8293 38.2839 90.2576C37.7122 89.6773 37.4263 88.8923 37.4263 87.9024C37.4263 87.2624 37.5543 86.6992 37.8103 86.2128C38.0663 85.7179 38.4162 85.3381 38.8599 85.0736C39.3122 84.8005 39.8327 84.664 40.4215 84.664C41.2663 84.664 41.9276 84.9371 42.4055 85.4832C42.8834 86.0208 43.1223 86.7632 43.1223 87.7104V88.1072H38.4375C38.4716 88.8155 38.6764 89.3573 39.0519 89.7328C39.4274 90.0997 39.9479 90.2832 40.6135 90.2832C40.989 90.2832 41.3474 90.2277 41.6887 90.1168C42.03 89.9973 42.3543 89.8053 42.6615 89.5408L43.0199 90.2704C42.7383 90.5349 42.3799 90.744 41.9447 90.8976C41.5095 91.0427 41.0658 91.1152 40.6135 91.1152ZM40.4471 85.432C39.8583 85.432 39.3932 85.6155 39.0519 85.9824C38.7106 86.3493 38.51 86.8315 38.4503 87.4288H42.2263C42.2007 86.7973 42.0343 86.3067 41.7271 85.9568C41.4284 85.6069 41.0018 85.432 40.4471 85.432ZM46.9908 91.1152C46.4361 91.1152 45.9497 90.9829 45.5316 90.7184C45.122 90.4539 44.802 90.0827 44.5716 89.6048C44.3497 89.1184 44.2388 88.5467 44.2388 87.8896C44.2388 87.224 44.3497 86.6523 44.5716 86.1744C44.802 85.688 45.122 85.3168 45.5316 85.0608C45.9497 84.7963 46.4361 84.664 46.9908 84.664C47.4772 84.664 47.9039 84.7707 48.2708 84.984C48.6463 85.1973 48.9236 85.4917 49.1028 85.8672V81.976H50.1396V91H49.1284V89.8608C48.9492 90.2533 48.6719 90.5605 48.2964 90.7824C47.9209 91.0043 47.4857 91.1152 46.9908 91.1152ZM47.2084 90.2832C47.7887 90.2832 48.2537 90.0784 48.6036 89.6688C48.9535 89.2507 49.1284 88.6576 49.1284 87.8896C49.1284 87.1131 48.9535 86.52 48.6036 86.1104C48.2537 85.7008 47.7887 85.496 47.2084 85.496C46.6196 85.496 46.1503 85.7008 45.8004 86.1104C45.4591 86.52 45.2884 87.1131 45.2884 87.8896C45.2884 88.6576 45.4591 89.2507 45.8004 89.6688C46.1503 90.0784 46.6196 90.2832 47.2084 90.2832ZM58.5216 91.1152C58.0267 91.1152 57.5915 91.0043 57.216 90.7824C56.8491 90.5605 56.5717 90.2576 56.384 89.8736V91H55.3728V81.976H56.4096V85.8544C56.5888 85.4875 56.8661 85.1973 57.2416 84.984C57.6171 84.7707 58.0437 84.664 58.5216 84.664C59.0763 84.664 59.5584 84.7963 59.968 85.0608C60.3861 85.3168 60.7061 85.688 60.928 86.1744C61.1584 86.6523 61.2736 87.224 61.2736 87.8896C61.2736 88.5467 61.1584 89.1184 60.928 89.6048C60.7061 90.0827 60.3861 90.4539 59.968 90.7184C59.5584 90.9829 59.0763 91.1152 58.5216 91.1152ZM58.304 90.2832C58.8843 90.2832 59.3493 90.0784 59.6992 89.6688C60.0491 89.2507 60.224 88.6576 60.224 87.8896C60.224 87.1131 60.0491 86.52 59.6992 86.1104C59.3493 85.7008 58.8843 85.496 58.304 85.496C57.7237 85.496 57.2587 85.7008 56.9088 86.1104C56.5589 86.52 56.384 87.1131 56.384 87.8896C56.384 88.6576 56.5589 89.2507 56.9088 89.6688C57.2587 90.0784 57.7237 90.2832 58.304 90.2832ZM63.4646 93.304L64.527 90.8976L61.903 84.7792H63.0294L65.0902 89.8224L67.1638 84.7792H68.2518L64.5526 93.304H63.4646Z" fill="white"/>
<mask id="mask0_153_4857" style="mask-type:alpha" maskUnits="userSpaceOnUse" x="75" y="83" width="9" height="10">
<path d="M75 83.6631H83.9696V92.8186H75V83.6631Z" fill="white"/>
</mask>
<g mask="url(#mask0_153_4857)">
<path fill-rule="evenodd" clip-rule="evenodd" d="M78.8607 90.6213C79.1903 91.6467 79.1537 91.7383 79.1537 92.2693H79.8129C79.8129 91.7383 79.7763 91.6284 80.1058 90.6213L82.3214 83.6631H83.9694L80.9664 92.8186H78.0001L74.9971 83.6631H76.645L78.8607 90.6213Z" fill="white"/>
</g>
<path fill-rule="evenodd" clip-rule="evenodd" d="M106.245 83.6631V88.8268C106.245 90.9326 107.38 91.8115 108.992 91.8115C110.878 91.8115 111.738 90.6946 111.738 88.5888V83.6631H113.203V92.8186H111.738V91.4636H111.079C110.603 92.7637 109.413 93.075 108.479 93.075C105.989 93.075 104.78 91.4636 104.78 88.8268V83.6631H106.245Z" fill="white"/>
<mask id="mask1_153_4857" style="mask-type:alpha" maskUnits="userSpaceOnUse" x="85" y="80" width="40" height="14">
<path d="M85.1279 80.025H124.372V93.975H85.1279V80.025Z" fill="white"/>
</mask>
<g mask="url(#mask1_153_4857)">
<path fill-rule="evenodd" clip-rule="evenodd" d="M119.959 84.6519C118.385 84.6519 117.323 85.6773 117.103 87.3619H122.852C122.633 85.6773 121.571 84.6519 119.959 84.6519ZM119.959 83.4067C122.926 83.4067 124.372 85.4759 124.372 88.0944V88.4972H117.048C117.103 90.5297 118.201 91.8481 119.959 91.8481C121.314 91.8481 122.193 91.0973 122.651 89.8522H124.189C123.677 91.7382 122.34 93.0749 119.959 93.0749C117.048 93.0749 115.583 91.0058 115.583 88.369V88.0944C115.583 85.4759 117.048 83.4067 119.959 83.4067Z" fill="white"/>
<path fill-rule="evenodd" clip-rule="evenodd" d="M101.046 80.025H99.5811V91.5185C99.5811 92.2326 100.167 92.8186 100.881 92.8186H102.524V91.3904H101.046V80.025Z" fill="white"/>
<path fill-rule="evenodd" clip-rule="evenodd" d="M89.5529 92.6292H92.758L95.2132 90.569L95.7697 87.4128L94.1672 84.6371L91.1555 83.541L88.1437 84.6371L86.5412 87.4128L87.0977 90.569L89.5529 92.6292ZM93.2487 93.9778H89.0621L85.8549 91.2867L85.1279 87.1635L87.2212 83.5379L91.1555 82.106L95.0896 83.5379L97.1829 87.1635L96.4559 91.2867L93.2487 93.9778Z" fill="white"/>
</g>
<defs>
<clipPath id="clip0_153_4857">
<rect width="125" height="52" fill="white"/>
</clipPath>
</defs>
</svg>
